<svg id="Layer_1" data-name="Layer 1" xmlns="http://www.w3.org/2000/svg" viewBox="0 0 350 350"><defs><style>.cls-1{opacity:0.2;}.cls-2{fill:#9096a0;}.cls-3{fill:#fff;}.cls-4{fill:#666;}.cls-5{fill:#757575;}</style></defs><path class="cls-1" d="M250.84,159.56c.78-1.53,2.52-2.61,4.06-3.56a3.87,3.87,0,0,1,1.54-.56,67.06,67.06,0,0,0,8.29-2.73c2.48-1,4.82-2,7.16-3.13a46.16,46.16,0,0,0,10.22-6.1,34,34,0,0,0,5.44-5.87l.81-1c2.05-2.59,5.15-6.51,8.15-9.68,1.11-1.17,2.21-2.25,3.27-3.29a56.74,56.74,0,0,0,8.94-10.43c3.84-5.92,4.22-11.08,1.14-15.33-1.35-1.86-4.52-4.93-10.54-4.49-8.38.6-23.74,6.55-26.73,7.74a51.47,51.47,0,0,1-12.52,3.12,54.61,54.61,0,0,0-18,5.34,62.06,62.06,0,0,0-8.46,4.75,56.52,56.52,0,0,0-4.71,3.72c-1.78,1.52-2.34,2-3.54,2.39a5.61,5.61,0,0,1-1.24.32,4.55,4.55,0,0,1-1.29-.86c-.55-.46-5.76-4.75-19.46-12.54-6.07-3.45-15.14-5.08-28.6-5.13s-22.45,1.67-28.53,5.13c-13.67,7.77-19,12.11-19.51,12.59a4.38,4.38,0,0,1-1.23.81,6.25,6.25,0,0,1-1.26-.32c-1.19-.42-1.75-.87-3.54-2.4a58,58,0,0,0-4.7-3.71,62.37,62.37,0,0,0-8.48-4.76,54.64,54.64,0,0,0-18-5.33,51.47,51.47,0,0,1-12.52-3.12c-3-1.19-18.35-7.14-26.74-7.74-6-.42-9.19,2.63-10.53,4.49-3.08,4.25-2.7,9.41,1.14,15.33a57.18,57.18,0,0,0,8.94,10.44c1.06,1,2.16,2.11,3.27,3.28,3,3.18,6.11,7.11,8.16,9.7l.79,1a34.15,34.15,0,0,0,5.45,5.88,46.16,46.16,0,0,0,10.22,6.1c2.33,1.13,4.68,2.15,7.16,3.13a68.36,68.36,0,0,0,8.3,2.74,3.76,3.76,0,0,1,1.53.55c1.54.95,3.28,2,4.06,3.57.09.18.18.36.28.59a20.61,20.61,0,0,0,2.9,4.76c-1.78-.09-3.63-.09-5.56-.09a32.74,32.74,0,0,0-17.82,6,10.61,10.61,0,0,0-6.68-2,62.14,62.14,0,0,0-23.4,5.57,16.07,16.07,0,0,0-7,6c-1.37,1.88-3.56,6.71-2.09,11.55,1.18,3.91,3.87,5.86,8,7.18-1.1,16.81-1.67,30.16-1.75,40.62l-1.17.82a10.45,10.45,0,0,0,2,18.25c12.29,5,20.75,7.51,25.86,7.51a12.64,12.64,0,0,0,2.54-.23,10.76,10.76,0,0,0,5.48-2.57,22.31,22.31,0,0,0,1.94-1.95c1.37,5.26,3.51,9.27,8.79,10.32a9.75,9.75,0,0,0,10.9-5.93c.18-.41.35-.86.52-1.32.7,1.12,1.33,2.12,1.8,2.85,5.27,8.21,8.54,12.86,14.23,12.86a10.42,10.42,0,0,0,2.1-.22,9.68,9.68,0,0,0,7.66-10.37q0-.53-.09-1.08a60.63,60.63,0,0,0,6.18,0,9.92,9.92,0,0,0,4.56,4.38A9.75,9.75,0,0,0,143,274h0c8.25,0,13.84-10.46,13.89-10.56l.51-1.08c4,9.26,8.26,10.23,13.4,11.42l.62.14a22.06,22.06,0,0,0,5.1.69,10.76,10.76,0,0,0,6.32-1.83,11.09,11.09,0,0,0,3.92-5.38,10.06,10.06,0,0,0,2.85,0c1.49,3.51,4.48,8.3,10.4,8.3a10.78,10.78,0,0,0,2-.19c3.79-.74,6.3-3.14,7.46-7.14a19.18,19.18,0,0,0,9.59,2.58c.54,0,1.07,0,1.57-.07a19,19,0,0,0,11.4-5.38c1.52,3.46,3.82,5.9,7.93,6.47a9.71,9.71,0,0,0,10.65-7c1.13,1.59,2.34,3.19,3.44,4.61,5,6.4,8.63,10.59,13.91,10.59a10,10,0,0,0,2.15-.24,9.67,9.67,0,0,0,7.62-8.67,17,17,0,0,0,2.49.35,20,20,0,0,0,11.41-2.89c5.93-3.35,8.46-8.31,10.14-11.59a42.7,42.7,0,0,0,4.5-14.88c.88-13.08-1.14-20.18-2.34-24.42a13.47,13.47,0,0,1-.72-3.27c4.14-14.53,5.42-20.09,2.42-30.69-1.13-4-3.24-11.44-10.65-16.36a20.84,20.84,0,0,0-12.5-3.76c-8.57.35-13.85,6.26-15.84,8.48-.08.1-.17.19-.25.28a19.87,19.87,0,0,0-4.19-4.28c-4.11-2.94-8.78-3.35-14.46-3.41a21.14,21.14,0,0,0,2.85-4.73C250.66,159.93,250.75,159.75,250.84,159.56Z"/><path class="cls-1" d="M250.84,157.56c.78-1.53,2.52-2.61,4.06-3.56a3.87,3.87,0,0,1,1.54-.56,67.06,67.06,0,0,0,8.29-2.73c2.48-1,4.82-2,7.16-3.13a46.16,46.16,0,0,0,10.22-6.1,34,34,0,0,0,5.44-5.87l.81-1c2.05-2.59,5.15-6.51,8.15-9.68,1.11-1.17,2.21-2.25,3.27-3.29a56.74,56.74,0,0,0,8.94-10.43c3.84-5.92,4.22-11.08,1.14-15.33-1.35-1.86-4.52-4.93-10.54-4.49-8.38.6-23.74,6.55-26.73,7.74a51.47,51.47,0,0,1-12.52,3.12,54.61,54.61,0,0,0-18,5.34,62.06,62.06,0,0,0-8.46,4.75,56.52,56.52,0,0,0-4.71,3.72c-1.78,1.52-2.34,2-3.54,2.39a5.61,5.61,0,0,1-1.24.32,4.55,4.55,0,0,1-1.29-.86c-.55-.46-5.76-4.75-19.46-12.54-6.07-3.45-15.14-5.08-28.6-5.13s-22.45,1.67-28.53,5.13c-13.67,7.77-19,12.11-19.51,12.59a4.38,4.38,0,0,1-1.23.81,6.25,6.25,0,0,1-1.26-.32c-1.19-.42-1.75-.87-3.54-2.4a58,58,0,0,0-4.7-3.71,62.37,62.37,0,0,0-8.48-4.76,54.64,54.64,0,0,0-18-5.33A51.47,51.47,0,0,1,76.92,99.1c-3-1.19-18.35-7.14-26.74-7.74-6-.42-9.19,2.63-10.53,4.49-3.08,4.25-2.7,9.41,1.14,15.33a57.18,57.18,0,0,0,8.94,10.44c1.06,1,2.16,2.11,3.27,3.28,3,3.18,6.11,7.11,8.16,9.7l.79,1a34.15,34.15,0,0,0,5.45,5.88,46.16,46.16,0,0,0,10.22,6.1c2.33,1.13,4.68,2.15,7.16,3.13a68.36,68.36,0,0,0,8.3,2.74,3.76,3.76,0,0,1,1.53.55c1.54.95,3.28,2,4.06,3.57.09.18.18.36.28.59a20.61,20.61,0,0,0,2.9,4.76c-1.78-.09-3.63-.09-5.56-.09a32.74,32.74,0,0,0-17.82,6,10.61,10.61,0,0,0-6.68-2,62.14,62.14,0,0,0-23.4,5.57,16.07,16.07,0,0,0-7,6c-1.37,1.88-3.56,6.71-2.09,11.55,1.18,3.91,3.87,5.86,8,7.18-1.1,16.81-1.67,30.16-1.75,40.62l-1.17.82a10.45,10.45,0,0,0,2,18.25c12.29,5,20.75,7.51,25.86,7.51a12.64,12.64,0,0,0,2.54-.23,10.76,10.76,0,0,0,5.48-2.57,22.31,22.31,0,0,0,1.94-1.95c1.37,5.26,3.51,9.27,8.79,10.32a9.75,9.75,0,0,0,10.9-5.93c.18-.41.35-.86.52-1.32.7,1.12,1.33,2.12,1.8,2.85,5.27,8.21,8.54,12.86,14.23,12.86a10.42,10.42,0,0,0,2.1-.22,9.68,9.68,0,0,0,7.66-10.37q0-.53-.09-1.08a60.63,60.63,0,0,0,6.18,0,9.92,9.92,0,0,0,4.56,4.38A9.75,9.75,0,0,0,143,272h0c8.25,0,13.84-10.46,13.89-10.56l.51-1.08c4,9.26,8.26,10.23,13.4,11.42l.62.14a22.06,22.06,0,0,0,5.1.69,10.76,10.76,0,0,0,6.32-1.83,11.09,11.09,0,0,0,3.92-5.38,10.06,10.06,0,0,0,2.85,0c1.49,3.51,4.48,8.3,10.4,8.3a10.78,10.78,0,0,0,2-.19c3.79-.74,6.3-3.14,7.46-7.14a19.18,19.18,0,0,0,9.59,2.58c.54,0,1.07,0,1.57-.07a19,19,0,0,0,11.4-5.38c1.52,3.46,3.82,5.9,7.93,6.47a9.71,9.71,0,0,0,10.65-7c1.13,1.59,2.34,3.19,3.44,4.61,5,6.4,8.63,10.59,13.91,10.59a10,10,0,0,0,2.15-.24,9.67,9.67,0,0,0,7.62-8.67,17,17,0,0,0,2.49.35,20,20,0,0,0,11.41-2.89c5.93-3.35,8.46-8.31,10.14-11.59a42.7,42.7,0,0,0,4.5-14.88c.88-13.08-1.14-20.18-2.34-24.42a13.47,13.47,0,0,1-.72-3.27c4.14-14.53,5.42-20.09,2.42-30.69-1.13-4-3.24-11.44-10.65-16.36a20.84,20.84,0,0,0-12.5-3.76c-8.57.35-13.85,6.26-15.84,8.48-.08.1-.17.19-.25.28a19.87,19.87,0,0,0-4.19-4.28c-4.11-2.94-8.78-3.35-14.46-3.41a21.14,21.14,0,0,0,2.85-4.73C250.66,157.93,250.75,157.75,250.84,157.56Z"/><path class="cls-1" d="M250.84,155.56c.78-1.53,2.52-2.61,4.06-3.56a3.87,3.87,0,0,1,1.54-.56,67.06,67.06,0,0,0,8.29-2.73c2.48-1,4.82-2,7.16-3.13a46.16,46.16,0,0,0,10.22-6.1,34,34,0,0,0,5.44-5.87l.81-1c2.05-2.59,5.15-6.51,8.15-9.68,1.11-1.17,2.21-2.25,3.27-3.29a56.74,56.74,0,0,0,8.94-10.43c3.84-5.92,4.22-11.08,1.14-15.33-1.35-1.86-4.52-4.93-10.54-4.49-8.38.6-23.74,6.55-26.73,7.74a51.47,51.47,0,0,1-12.52,3.12,54.61,54.61,0,0,0-18,5.34,62.06,62.06,0,0,0-8.46,4.75,56.52,56.52,0,0,0-4.71,3.72c-1.78,1.52-2.34,2-3.54,2.39a5.61,5.61,0,0,1-1.24.32,4.55,4.55,0,0,1-1.29-.86c-.55-.46-5.76-4.75-19.46-12.54-6.07-3.45-15.14-5.08-28.6-5.13s-22.45,1.67-28.53,5.13c-13.67,7.77-19,12.11-19.51,12.59a4.38,4.38,0,0,1-1.23.81,6.25,6.25,0,0,1-1.26-.32c-1.19-.42-1.75-.87-3.54-2.4a58,58,0,0,0-4.7-3.71,62.37,62.37,0,0,0-8.48-4.76,54.64,54.64,0,0,0-18-5.33A51.47,51.47,0,0,1,76.92,97.1c-3-1.19-18.35-7.14-26.74-7.74-6-.42-9.19,2.63-10.53,4.49-3.08,4.25-2.7,9.41,1.14,15.33a57.18,57.18,0,0,0,8.94,10.44c1.06,1,2.16,2.11,3.27,3.28,3,3.18,6.11,7.11,8.16,9.7l.79,1a34.15,34.15,0,0,0,5.45,5.88,46.16,46.16,0,0,0,10.22,6.1c2.33,1.13,4.68,2.15,7.16,3.13a68.36,68.36,0,0,0,8.3,2.74,3.76,3.76,0,0,1,1.53.55c1.54.95,3.28,2,4.06,3.57.09.18.18.36.28.59a20.61,20.61,0,0,0,2.9,4.76c-1.78-.09-3.63-.09-5.56-.09a32.74,32.74,0,0,0-17.82,6,10.61,10.61,0,0,0-6.68-2,62.14,62.14,0,0,0-23.4,5.57,16.07,16.07,0,0,0-7,6c-1.37,1.88-3.56,6.71-2.09,11.55,1.18,3.91,3.87,5.86,8,7.18-1.1,16.81-1.67,30.16-1.75,40.62l-1.17.82a10.45,10.45,0,0,0,2,18.25c12.29,5,20.75,7.51,25.86,7.51a12.64,12.64,0,0,0,2.54-.23,10.76,10.76,0,0,0,5.48-2.57,22.31,22.31,0,0,0,1.94-1.95c1.37,5.26,3.51,9.27,8.79,10.32a9.75,9.75,0,0,0,10.9-5.93c.18-.41.35-.86.52-1.32.7,1.12,1.33,2.12,1.8,2.85,5.27,8.21,8.54,12.86,14.23,12.86a10.42,10.42,0,0,0,2.1-.22,9.68,9.68,0,0,0,7.66-10.37q0-.53-.09-1.08a60.63,60.63,0,0,0,6.18,0,9.92,9.92,0,0,0,4.56,4.38A9.75,9.75,0,0,0,143,270h0c8.25,0,13.84-10.46,13.89-10.56l.51-1.08c4,9.26,8.26,10.23,13.4,11.42l.62.14a22.06,22.06,0,0,0,5.1.69,10.76,10.76,0,0,0,6.32-1.83,11.09,11.09,0,0,0,3.92-5.38,10.06,10.06,0,0,0,2.85,0c1.49,3.51,4.48,8.3,10.4,8.3a10.78,10.78,0,0,0,2-.19c3.79-.74,6.3-3.14,7.46-7.14a19.18,19.18,0,0,0,9.59,2.58c.54,0,1.07,0,1.57-.07a19,19,0,0,0,11.4-5.38c1.52,3.46,3.82,5.9,7.93,6.47a9.71,9.71,0,0,0,10.65-7c1.13,1.59,2.34,3.19,3.44,4.61,5,6.4,8.63,10.59,13.91,10.59a10,10,0,0,0,2.15-.24,9.67,9.67,0,0,0,7.62-8.67,17,17,0,0,0,2.49.35,20,20,0,0,0,11.41-2.89c5.93-3.35,8.46-8.31,10.14-11.59a42.7,42.7,0,0,0,4.5-14.88c.88-13.08-1.14-20.18-2.34-24.42a13.47,13.47,0,0,1-.72-3.27c4.14-14.53,5.42-20.09,2.42-30.69-1.13-4-3.24-11.44-10.65-16.36a20.84,20.84,0,0,0-12.5-3.76c-8.57.35-13.85,6.26-15.84,8.48-.08.1-.17.19-.25.28a19.87,19.87,0,0,0-4.19-4.28c-4.11-2.94-8.78-3.35-14.46-3.41a21.14,21.14,0,0,0,2.85-4.73C250.66,155.93,250.75,155.75,250.84,155.56Z"/><path class="cls-1" d="M250.84,153.56c.78-1.53,2.52-2.61,4.06-3.56a3.87,3.87,0,0,1,1.54-.56,67.06,67.06,0,0,0,8.29-2.73c2.48-1,4.82-2,7.16-3.13a46.16,46.16,0,0,0,10.22-6.1,34,34,0,0,0,5.44-5.87l.81-1c2.05-2.59,5.15-6.51,8.15-9.68,1.11-1.17,2.21-2.25,3.27-3.29a56.74,56.74,0,0,0,8.94-10.43c3.84-5.92,4.22-11.08,1.14-15.33-1.35-1.86-4.52-4.93-10.54-4.49-8.38.6-23.74,6.55-26.73,7.74a51.47,51.47,0,0,1-12.52,3.12,54.61,54.61,0,0,0-18,5.34,62.06,62.06,0,0,0-8.46,4.75,56.52,56.52,0,0,0-4.71,3.72c-1.78,1.52-2.34,2-3.54,2.39a5.61,5.61,0,0,1-1.24.32,4.55,4.55,0,0,1-1.29-.86c-.55-.46-5.76-4.75-19.46-12.54-6.07-3.45-15.14-5.08-28.6-5.13s-22.45,1.67-28.53,5.13c-13.67,7.77-19,12.11-19.51,12.59a4.38,4.38,0,0,1-1.23.81,6.25,6.25,0,0,1-1.26-.32c-1.19-.42-1.75-.87-3.54-2.4a58,58,0,0,0-4.7-3.71,62.37,62.37,0,0,0-8.48-4.76,54.64,54.64,0,0,0-18-5.33A51.47,51.47,0,0,1,76.92,95.1c-3-1.19-18.35-7.14-26.74-7.74-6-.42-9.19,2.63-10.53,4.49-3.08,4.25-2.7,9.41,1.14,15.33a57.18,57.18,0,0,0,8.94,10.44c1.06,1,2.16,2.11,3.27,3.28,3,3.18,6.11,7.11,8.16,9.7l.79,1a34.15,34.15,0,0,0,5.45,5.88,46.16,46.16,0,0,0,10.22,6.1c2.33,1.13,4.68,2.15,7.16,3.13a68.36,68.36,0,0,0,8.3,2.74,3.76,3.76,0,0,1,1.53.55c1.54.95,3.28,2,4.06,3.57.09.18.18.36.28.59a20.61,20.61,0,0,0,2.9,4.76c-1.78-.09-3.63-.09-5.56-.09a32.74,32.74,0,0,0-17.82,6,10.61,10.61,0,0,0-6.68-2,62.14,62.14,0,0,0-23.4,5.57,16.07,16.07,0,0,0-7,6c-1.37,1.88-3.56,6.71-2.09,11.55,1.18,3.91,3.87,5.86,8,7.18-1.1,16.81-1.67,30.16-1.75,40.62l-1.17.82a10.45,10.45,0,0,0,2,18.25c12.29,5,20.75,7.51,25.86,7.51a12.64,12.64,0,0,0,2.54-.23,10.76,10.76,0,0,0,5.48-2.57,22.31,22.31,0,0,0,1.94-1.95c1.37,5.26,3.51,9.27,8.79,10.32a9.75,9.75,0,0,0,10.9-5.93c.18-.41.35-.86.52-1.32.7,1.12,1.33,2.12,1.8,2.85,5.27,8.21,8.54,12.86,14.23,12.86a10.42,10.42,0,0,0,2.1-.22,9.68,9.68,0,0,0,7.66-10.37q0-.53-.09-1.08a60.63,60.63,0,0,0,6.18,0,9.92,9.92,0,0,0,4.56,4.38A9.75,9.75,0,0,0,143,268h0c8.25,0,13.84-10.46,13.89-10.56l.51-1.08c4,9.26,8.26,10.23,13.4,11.42l.62.14a22.06,22.06,0,0,0,5.1.69,10.76,10.76,0,0,0,6.32-1.83,11.09,11.09,0,0,0,3.92-5.38,10.06,10.06,0,0,0,2.85,0c1.49,3.51,4.48,8.3,10.4,8.3a10.78,10.78,0,0,0,2-.19c3.79-.74,6.3-3.14,7.46-7.14a19.18,19.18,0,0,0,9.59,2.58c.54,0,1.07,0,1.57-.07a19,19,0,0,0,11.4-5.38c1.52,3.46,3.82,5.9,7.93,6.47a9.71,9.71,0,0,0,10.65-7c1.13,1.59,2.34,3.19,3.44,4.61,5,6.4,8.63,10.59,13.91,10.59a10,10,0,0,0,2.15-.24,9.67,9.67,0,0,0,7.62-8.67,17,17,0,0,0,2.49.35,20,20,0,0,0,11.41-2.89c5.93-3.35,8.46-8.31,10.14-11.59a42.7,42.7,0,0,0,4.5-14.88c.88-13.08-1.14-20.18-2.34-24.42a13.47,13.47,0,0,1-.72-3.27c4.14-14.53,5.42-20.09,2.42-30.69-1.13-4-3.24-11.44-10.65-16.36a20.84,20.84,0,0,0-12.5-3.76c-8.57.35-13.85,6.26-15.84,8.48-.08.1-.17.19-.25.28a19.87,19.87,0,0,0-4.19-4.28c-4.11-2.94-8.78-3.35-14.46-3.41a21.14,21.14,0,0,0,2.85-4.73C250.66,153.93,250.75,153.75,250.84,153.56Z"/><path class="cls-1" d="M250.84,151.56c.78-1.53,2.52-2.61,4.06-3.56a3.87,3.87,0,0,1,1.54-.56,67.06,67.06,0,0,0,8.29-2.73c2.48-1,4.82-2,7.16-3.13a46.16,46.16,0,0,0,10.22-6.1,34,34,0,0,0,5.44-5.87l.81-1c2.05-2.59,5.15-6.51,8.15-9.68,1.11-1.17,2.21-2.25,3.27-3.29a56.74,56.74,0,0,0,8.94-10.43c3.84-5.92,4.22-11.08,1.14-15.33-1.35-1.86-4.52-4.93-10.54-4.49-8.38.6-23.74,6.55-26.73,7.74a51.47,51.47,0,0,1-12.52,3.12,54.61,54.61,0,0,0-18,5.34,62.06,62.06,0,0,0-8.46,4.75,56.52,56.52,0,0,0-4.71,3.72c-1.78,1.52-2.34,2-3.54,2.39a5.61,5.61,0,0,1-1.24.32,4.55,4.55,0,0,1-1.29-.86c-.55-.46-5.76-4.75-19.46-12.54-6.07-3.45-15.14-5.08-28.6-5.13s-22.45,1.67-28.53,5.13c-13.67,7.77-19,12.11-19.51,12.59a4.38,4.38,0,0,1-1.23.81,6.25,6.25,0,0,1-1.26-.32c-1.19-.42-1.75-.87-3.54-2.4a58,58,0,0,0-4.7-3.71,62.37,62.37,0,0,0-8.48-4.76,54.64,54.64,0,0,0-18-5.33A51.47,51.47,0,0,1,76.92,93.1c-3-1.19-18.35-7.14-26.74-7.74-6-.42-9.19,2.63-10.53,4.49-3.08,4.25-2.7,9.41,1.14,15.33a57.18,57.18,0,0,0,8.94,10.44c1.06,1,2.16,2.11,3.27,3.28,3,3.18,6.11,7.11,8.16,9.7l.79,1a34.15,34.15,0,0,0,5.45,5.88,46.16,46.16,0,0,0,10.22,6.1c2.33,1.13,4.68,2.15,7.16,3.13a68.36,68.36,0,0,0,8.3,2.74,3.76,3.76,0,0,1,1.53.55c1.54.95,3.28,2,4.06,3.57.09.18.18.36.28.59a20.61,20.61,0,0,0,2.9,4.76c-1.78-.09-3.63-.09-5.56-.09a32.74,32.74,0,0,0-17.82,6,10.61,10.61,0,0,0-6.68-2,62.14,62.14,0,0,0-23.4,5.57,16.07,16.07,0,0,0-7,6c-1.37,1.88-3.56,6.71-2.09,11.55,1.18,3.91,3.87,5.86,8,7.18-1.1,16.81-1.67,30.16-1.75,40.62l-1.17.82a10.45,10.45,0,0,0,2,18.25c12.29,5.05,20.75,7.51,25.86,7.51a12.64,12.64,0,0,0,2.54-.23,10.76,10.76,0,0,0,5.48-2.57,22.31,22.31,0,0,0,1.94-1.95c1.37,5.26,3.51,9.27,8.79,10.32a9.75,9.75,0,0,0,10.9-5.93c.18-.41.35-.86.52-1.32.7,1.12,1.33,2.12,1.8,2.85,5.27,8.21,8.54,12.86,14.23,12.86a10.42,10.42,0,0,0,2.1-.22,9.68,9.68,0,0,0,7.66-10.37q0-.53-.09-1.08a60.63,60.63,0,0,0,6.18,0,9.92,9.92,0,0,0,4.56,4.38A9.75,9.75,0,0,0,143,266h0c8.25,0,13.84-10.46,13.89-10.56l.51-1.08c4,9.26,8.26,10.23,13.4,11.42l.62.14a22.06,22.06,0,0,0,5.1.69,10.76,10.76,0,0,0,6.32-1.83,11.09,11.09,0,0,0,3.92-5.38,10.06,10.06,0,0,0,2.85,0c1.49,3.51,4.48,8.3,10.4,8.3a10.78,10.78,0,0,0,2-.19c3.79-.74,6.3-3.14,7.46-7.14a19.18,19.18,0,0,0,9.59,2.58c.54,0,1.07,0,1.57-.07a19,19,0,0,0,11.4-5.38c1.52,3.46,3.82,5.9,7.93,6.47a9.71,9.71,0,0,0,10.65-7c1.13,1.59,2.34,3.19,3.44,4.61,5,6.4,8.63,10.59,13.91,10.59a10,10,0,0,0,2.15-.24,9.67,9.67,0,0,0,7.62-8.67,17,17,0,0,0,2.49.35,20,20,0,0,0,11.41-2.89c5.93-3.35,8.46-8.31,10.14-11.59a42.7,42.7,0,0,0,4.5-14.88c.88-13.08-1.14-20.18-2.34-24.42a13.47,13.47,0,0,1-.72-3.27c4.14-14.53,5.42-20.09,2.42-30.69-1.13-4-3.24-11.44-10.65-16.36a20.84,20.84,0,0,0-12.5-3.76c-8.57.35-13.85,6.26-15.84,8.48-.08.1-.17.19-.25.28a19.87,19.87,0,0,0-4.19-4.28c-4.11-2.94-8.78-3.35-14.46-3.41a21.14,21.14,0,0,0,2.85-4.73C250.66,151.93,250.75,151.75,250.84,151.56Z"/><path class="cls-1" d="M250.84,149.56c.78-1.53,2.52-2.61,4.06-3.56a3.87,3.87,0,0,1,1.54-.56,67.06,67.06,0,0,0,8.29-2.73c2.48-1,4.82-2,7.16-3.13a46.16,46.16,0,0,0,10.22-6.1,34,34,0,0,0,5.44-5.87l.81-1c2.05-2.59,5.15-6.51,8.15-9.68,1.11-1.17,2.21-2.25,3.27-3.29a56.74,56.74,0,0,0,8.94-10.43c3.84-5.92,4.22-11.08,1.14-15.33-1.35-1.86-4.52-4.93-10.54-4.49-8.38.6-23.74,6.55-26.73,7.74a51.47,51.47,0,0,1-12.52,3.12,54.61,54.61,0,0,0-18,5.34,62.06,62.06,0,0,0-8.46,4.75,56.52,56.52,0,0,0-4.71,3.72c-1.78,1.52-2.34,2-3.54,2.39a5.61,5.61,0,0,1-1.24.32,4.55,4.55,0,0,1-1.29-.86c-.55-.46-5.76-4.75-19.46-12.54-6.07-3.45-15.14-5.08-28.6-5.13s-22.45,1.67-28.53,5.13c-13.67,7.77-19,12.11-19.51,12.59a4.38,4.38,0,0,1-1.23.81,6.25,6.25,0,0,1-1.26-.32c-1.19-.42-1.75-.87-3.54-2.4a58,58,0,0,0-4.7-3.71,62.37,62.37,0,0,0-8.48-4.76,54.64,54.64,0,0,0-18-5.33A51.47,51.47,0,0,1,76.92,91.1c-3-1.19-18.35-7.14-26.74-7.74-6-.42-9.19,2.63-10.53,4.49-3.08,4.25-2.7,9.41,1.14,15.33a57.18,57.18,0,0,0,8.94,10.44c1.06,1,2.16,2.11,3.27,3.28,3,3.18,6.11,7.11,8.16,9.7l.79,1a34.15,34.15,0,0,0,5.45,5.88,46.16,46.16,0,0,0,10.22,6.1c2.33,1.13,4.68,2.15,7.16,3.13a68.36,68.36,0,0,0,8.3,2.74,3.76,3.76,0,0,1,1.53.55c1.54.95,3.28,2,4.06,3.57.09.18.18.36.28.59a20.61,20.61,0,0,0,2.9,4.76c-1.78-.09-3.63-.09-5.56-.09a32.74,32.74,0,0,0-17.82,6,10.61,10.61,0,0,0-6.68-2,62.14,62.14,0,0,0-23.4,5.57,16.07,16.07,0,0,0-7,6c-1.37,1.88-3.56,6.71-2.09,11.55,1.18,3.91,3.87,5.86,8,7.18-1.1,16.81-1.67,30.16-1.75,40.62l-1.17.82a10.45,10.45,0,0,0,2,18.25c12.29,5.05,20.75,7.51,25.86,7.51a12.64,12.64,0,0,0,2.54-.23,10.76,10.76,0,0,0,5.48-2.57,22.31,22.31,0,0,0,1.94-1.95c1.37,5.26,3.51,9.27,8.79,10.32a9.75,9.75,0,0,0,10.9-5.93c.18-.41.35-.86.52-1.32.7,1.12,1.33,2.12,1.8,2.85,5.27,8.21,8.54,12.86,14.23,12.86a10.42,10.42,0,0,0,2.1-.22,9.68,9.68,0,0,0,7.66-10.37q0-.53-.09-1.08a60.63,60.63,0,0,0,6.18,0,9.92,9.92,0,0,0,4.56,4.38A9.75,9.75,0,0,0,143,264h0c8.25,0,13.84-10.46,13.89-10.56l.51-1.08c4,9.26,8.26,10.23,13.4,11.42l.62.14a22.06,22.06,0,0,0,5.1.69,10.76,10.76,0,0,0,6.32-1.83,11.09,11.09,0,0,0,3.92-5.38,10.06,10.06,0,0,0,2.85,0c1.49,3.51,4.48,8.3,10.4,8.3a10.78,10.78,0,0,0,2-.19c3.79-.74,6.3-3.14,7.46-7.14a19.18,19.18,0,0,0,9.59,2.58c.54,0,1.07,0,1.57-.07a19,19,0,0,0,11.4-5.38c1.52,3.46,3.82,5.9,7.93,6.47a9.71,9.71,0,0,0,10.65-7c1.13,1.59,2.34,3.19,3.44,4.61,5,6.4,8.63,10.59,13.91,10.59a10,10,0,0,0,2.15-.24,9.67,9.67,0,0,0,7.62-8.67,17,17,0,0,0,2.49.35,20,20,0,0,0,11.41-2.89c5.93-3.35,8.46-8.31,10.14-11.59a42.7,42.7,0,0,0,4.5-14.88c.88-13.08-1.14-20.18-2.34-24.42a13.47,13.47,0,0,1-.72-3.27c4.14-14.53,5.42-20.09,2.42-30.69-1.13-4-3.24-11.44-10.65-16.36a20.84,20.84,0,0,0-12.5-3.76c-8.57.35-13.85,6.26-15.84,8.48-.08.1-.17.19-.25.28a19.87,19.87,0,0,0-4.19-4.28c-4.11-2.94-8.78-3.35-14.46-3.41a21.14,21.14,0,0,0,2.85-4.73C250.66,149.93,250.75,149.75,250.84,149.56Z"/><path class="cls-2" d="M250.84,147.49c.78-1.53,2.52-2.61,4.06-3.56a3.87,3.87,0,0,1,1.54-.56,67.06,67.06,0,0,0,8.29-2.73c2.48-1,4.82-2,7.16-3.14,3.87-1.88,6.93-3.36,10.22-6.09a34.41,34.41,0,0,0,5.44-5.88l.81-1c2.05-2.59,5.15-6.51,8.15-9.68,1.11-1.18,2.21-2.25,3.27-3.29a57.08,57.08,0,0,0,8.94-10.43c3.84-5.92,4.22-11.08,1.14-15.33-1.35-1.87-4.52-4.93-10.54-4.49-8.38.59-23.74,6.55-26.73,7.74a51.47,51.47,0,0,1-12.52,3.12,54.79,54.79,0,0,0-18,5.33,63.08,63.08,0,0,0-8.46,4.76,58.91,58.91,0,0,0-4.71,3.71c-1.78,1.52-2.34,2-3.54,2.4a5.34,5.34,0,0,1-1.24.31,4.32,4.32,0,0,1-1.29-.85c-.55-.46-5.76-4.75-19.46-12.54-6.07-3.46-15.14-5.09-28.6-5.14s-22.45,1.68-28.53,5.14c-13.67,7.77-19,12.11-19.51,12.58a4.17,4.17,0,0,1-1.23.81,5.3,5.3,0,0,1-1.26-.31c-1.19-.42-1.75-.88-3.54-2.41a58.25,58.25,0,0,0-4.7-3.7,62.3,62.3,0,0,0-8.48-4.77,54.83,54.83,0,0,0-18-5.32A51.47,51.47,0,0,1,76.92,89c-3-1.19-18.35-7.15-26.74-7.74-6-.42-9.19,2.63-10.53,4.49C36.57,90,37,95.19,40.79,101.11a57.08,57.08,0,0,0,8.94,10.43c1.06,1,2.16,2.11,3.27,3.29,3,3.17,6.11,7.1,8.16,9.69l.79,1a34.52,34.52,0,0,0,5.45,5.88c3.29,2.73,6.35,4.21,10.22,6.09,2.33,1.14,4.68,2.16,7.16,3.14a65.92,65.92,0,0,0,8.3,2.73,3.87,3.87,0,0,1,1.53.56c1.54.95,3.28,2,4.06,3.56.09.18.18.36.28.6a20.61,20.61,0,0,0,2.9,4.76c-1.78-.09-3.63-.09-5.56-.09a32.66,32.66,0,0,0-17.82,6,10.62,10.62,0,0,0-6.68-2.05,62.34,62.34,0,0,0-23.4,5.58,16.07,16.07,0,0,0-7,6c-1.37,1.88-3.56,6.7-2.09,11.55,1.18,3.9,3.87,5.85,8,7.18-1.1,16.8-1.67,30.15-1.75,40.61l-1.17.82a10.45,10.45,0,0,0,2,18.25c12.29,5.06,20.75,7.52,25.86,7.52a13.44,13.44,0,0,0,2.54-.23,10.84,10.84,0,0,0,5.48-2.57,23.78,23.78,0,0,0,1.94-2c1.37,5.26,3.51,9.27,8.79,10.32a9.75,9.75,0,0,0,10.9-5.93c.18-.42.35-.86.52-1.32.7,1.12,1.33,2.12,1.8,2.84,5.27,8.22,8.54,12.87,14.23,12.87a10.42,10.42,0,0,0,2.1-.22,9.68,9.68,0,0,0,7.66-10.37c0-.36,0-.72-.09-1.09a57.87,57.87,0,0,0,6.18,0,10,10,0,0,0,4.56,4.38,9.75,9.75,0,0,0,4.15.94h0c8.25,0,13.84-10.47,13.89-10.56l.51-1.08c4,9.26,8.26,10.22,13.4,11.42l.62.14a22.06,22.06,0,0,0,5.1.69,10.76,10.76,0,0,0,6.32-1.83,11.09,11.09,0,0,0,3.92-5.38,10.06,10.06,0,0,0,2.85,0c1.49,3.51,4.48,8.3,10.4,8.3a10.8,10.8,0,0,0,2-.2c3.79-.74,6.3-3.13,7.46-7.14a19.1,19.1,0,0,0,9.59,2.59c.54,0,1.07,0,1.57-.07a19,19,0,0,0,11.4-5.38c1.52,3.46,3.82,5.9,7.93,6.47a9.72,9.72,0,0,0,10.65-7c1.13,1.59,2.34,3.19,3.44,4.61,5,6.39,8.63,10.59,13.91,10.59a10,10,0,0,0,2.15-.24,9.69,9.69,0,0,0,7.62-8.67,18.43,18.43,0,0,0,2.49.35,19.87,19.87,0,0,0,11.41-2.9c5.93-3.35,8.46-8.3,10.14-11.59a42.6,42.6,0,0,0,4.5-14.87c.88-13.09-1.14-20.18-2.34-24.42a13.47,13.47,0,0,1-.72-3.27c4.14-14.53,5.42-20.09,2.42-30.7-1.13-4-3.24-11.44-10.65-16.35a20.84,20.84,0,0,0-12.5-3.76c-8.57.35-13.85,6.26-15.84,8.48l-.25.28a20.17,20.17,0,0,0-4.19-4.29c-4.11-2.93-8.78-3.35-14.46-3.4a21.36,21.36,0,0,0,2.85-4.73C250.66,147.85,250.75,147.67,250.84,147.49Zm-8.41-4.3c-.15.29-.28.58-.44.92a10,10,0,0,1-2.4,3.55,12,12,0,0,1-4.26,2.43,10.77,10.77,0,0,1-2.87.58l-2.8.25-1.11,2.58a20.3,20.3,0,0,0-.72,2.08c-.54,1.79-.94,3.09-1.28,4.47l-2.51,10,9.22-4.68a28,28,0,0,1,11.58-3.21c5.74,0,9.54,0,11.86,1.65,1,.72,3.2,3.1,5.06,7.48l4.15,9.72,4.47-9.58a20.33,20.33,0,0,1,3.29-5c1.49-1.67,4.61-5.15,9.18-5.34a11.74,11.74,0,0,1,6.91,2.2c4.49,3,5.81,7.65,6.78,11.06,2.24,7.92,1.69,11.12-2.42,25.53-.85,3-.12,5.5.71,8.44,1.11,3.89,2.78,9.76,2,21.21a34,34,0,0,1-3.49,11.21c-1.37,2.68-2.92,5.71-6.38,7.67a11.26,11.26,0,0,1-5.54,1.71l-.57,0a9.36,9.36,0,0,1-5.58-2.51l-10-8.76,2.24,13.1c.39,2.28.66,4.36.8,6.18,0,.45-.13.49-.2.5l-.15,0c-.52-.16-2.06-1.27-6.48-7a61.34,61.34,0,0,1-6-8.7c-.88-2.45-1.81-5.14-2.76-8l-7.35-22.1-1.84,23.22c-.52,6.61-1.19,11.33-2,14-.12.39-.23.38-.3.38l-.13,0c-.94-1-2.07-6.44-2.62-9l-3.33-15.25-5.69,14.39a16.28,16.28,0,0,1-3,4.9,10.47,10.47,0,0,1-6.83,3.88,5.07,5.07,0,0,1-.66,0,9.64,9.64,0,0,1-7-3,9.46,9.46,0,0,1-1.72-2.58l-7.33-15-1.64,16.91c-.32,3.3-.53,5.39-.7,6.67a6.63,6.63,0,0,1-.4,1.75l-.06,0-.21,0s-1-.05-2.44-4.56c-.26-.8-.48-1.51-.66-2.18l-2.53-9.09-5.76,7.47a.31.31,0,0,1-.18.13l-.15,0a.46.46,0,0,0-.07-.07,6.26,6.26,0,0,0-2.15-3.76l-5.21-9.55-1.06,7.79c-.9,0-1.82.06-2.76.12s-2.14.12-3.2.12c-1.52,0-4.57-1-6.79-1.77-3.93-1.33-7.12-2.4-9.64-.76-.44-.05-.88-.09-1.3-.15l-3.77-.52L151,241c-.79,2.15-1.63,4.13-2.56,6.06-1.57,2.69-4.3,5.4-5.47,5.4a.26.26,0,0,1-.13,0c-.4-.19-.49-1.14-.51-1.33l-.41-5.12-5.07.85a32.53,32.53,0,0,1-5.31.39,64.44,64.44,0,0,1-7.41-.47h-.07l-.62-.1-6.51-1.12,1,6.52c.37,2.34.63,4.46.77,6.3,0,.17,0,.38-.14.43l-.14,0c-1.38-.76-4.86-6.18-6.36-8.52a99.65,99.65,0,0,1-6-10.25l-1.17-3.47-6.8-20.44-2.37,21.42c-.64,5.82-1.52,10.08-2.6,12.64-.15.36-.27.37-.37.35l-.16,0c-1-.85-2.06-6.61-2.52-9.07-.36-1.89-.73-4.1-1-6.05l-2.65-17.67L80,234.39c-1.15,3-3,7.31-6,10a1.37,1.37,0,0,1-.71.33l-.26,0a3.74,3.74,0,0,1-.8.07c-2.14,0-7.88-.89-22.27-6.81a1,1,0,0,1-.62-.82,1,1,0,0,1,.43-.94L55,232.58v-2.47c0-16.86,1.5-39.06,2-46.35l.27-4.08-4-.86c-3.67-.78-4.68-1.4-4.9-1.57,0,0,0-.07-.05-.14a5.09,5.09,0,0,1,.69-3.25c1.32-1.81,1.78-2.31,3.28-3a52.76,52.76,0,0,1,19.88-4.75c.24,0,.87,0,2.55,2l3.55,4.28,3.65-4.2c2.41-2.77,9.21-6,14.39-6,6,0,9.2.07,11.31,1.65,1.58,1.19,4.54,5.27,6.18,11.63l1.27,4.91,4.81-1.62c.77-.26,1.61-.52,2.54-.81l7.55-.56-3.88-6.58a16,16,0,0,1-2.17-5.94,54.49,54.49,0,0,0-2.23-9.32,21.69,21.69,0,0,0-.71-2.06l-1.11-2.58-2.8-.25a10.9,10.9,0,0,1-2.88-.58,12.06,12.06,0,0,1-4.25-2.43,10.07,10.07,0,0,1-2.42-3.59l-.42-.87c-2-3.88-5.43-6-7.5-7.3a12.48,12.48,0,0,0-4.11-1.66,59.53,59.53,0,0,1-7.24-2.39C86,131,83.86,130,81.74,129c-3.55-1.72-5.9-2.86-8.3-4.86a25.17,25.17,0,0,1-4.07-4.46l-.8-1c-2.16-2.73-5.42-6.85-8.71-10.33-1.24-1.31-2.46-2.5-3.53-3.55A48.54,48.54,0,0,1,48.71,96c-.56-.87-2.26-3.5-1.42-4.67.35-.48,1.1-.68,2.23-.6,5.8.41,17.76,4.65,23.92,7.09A60.65,60.65,0,0,0,88,101.48c4.76.73,9.25,1.42,15.23,4.43a55.38,55.38,0,0,1,7.3,4,49.29,49.29,0,0,1,4,3.17,19,19,0,0,0,6.54,4.13,12.38,12.38,0,0,0,5.27.81,12.06,12.06,0,0,0,6.44-3s4.93-4.12,18.09-11.59c4.47-2.55,12.49-3.86,23.83-3.91h.06c11.38,0,19.42,1.35,23.9,3.9,13.09,7.44,18,11.5,18,11.54a11.84,11.84,0,0,0,6.45,3,12.15,12.15,0,0,0,5.31-.8,19,19,0,0,0,6.54-4.13,50.19,50.19,0,0,1,4-3.17,56.32,56.32,0,0,1,7.29-4c6-3,10.48-3.7,15.24-4.43a60.65,60.65,0,0,0,14.56-3.68c6.16-2.44,18.12-6.68,23.93-7.09,1.69-.12,2.09.43,2.22.61.84,1.16-.86,3.79-1.42,4.66a48.54,48.54,0,0,1-7.62,8.81c-1.07,1-2.29,2.24-3.53,3.55-3.29,3.48-6.54,7.59-8.71,10.33l-.81,1a25,25,0,0,1-4.06,4.45c-2.4,2-4.75,3.14-8.31,4.86-2.11,1-4.23,2-6.48,2.84a58.91,58.91,0,0,1-7.25,2.39,12.34,12.34,0,0,0-4.1,1.66C247.86,137.18,244.41,139.32,242.43,143.19Z"/><path class="cls-3" d="M232.89,155.37a16.07,16.07,0,0,0,4-.81,16.39,16.39,0,0,0,5.92-3.43,14.44,14.44,0,0,0,3.5-5c.11-.26.23-.51.35-.76,1.39-2.7,3.93-4.28,5.78-5.42a8,8,0,0,1,2.82-1.11,63,63,0,0,0,7.77-2.57c2.37-.93,4.6-1.9,6.82-3,3.73-1.81,6.42-3.12,9.27-5.48a29.24,29.24,0,0,0,4.75-5.17l.81-1c2.1-2.66,5.28-6.68,8.43-10,1.16-1.23,2.3-2.34,3.4-3.41a53.08,53.08,0,0,0,8.28-9.63c1.1-1.69,4-6.21,1.28-10-.94-1.3-2.82-2.81-6.39-2.55-7.84.55-23.55,6.71-25.32,7.41a55.7,55.7,0,0,1-13.54,3.4c-4.91.76-10,1.54-16.64,4.89a58,58,0,0,0-7.88,4.4,53.15,53.15,0,0,0-4.35,3.44,14.46,14.46,0,0,1-5,3.26,7.73,7.73,0,0,1-3.21.57,7.4,7.4,0,0,1-3.94-2c-.21-.18-5.23-4.37-18.74-12-5.27-3-13.84-4.47-26.22-4.52h0c-12.37.05-21,1.52-26.22,4.52C135,107.05,130,111.24,129.73,111.46a7.34,7.34,0,0,1-3.89,1.91,7.73,7.73,0,0,1-3.21-.57,14.46,14.46,0,0,1-5-3.26,53.15,53.15,0,0,0-4.35-3.44,59.22,59.22,0,0,0-7.89-4.41c-6.65-3.34-11.72-4.12-16.63-4.88a55.59,55.59,0,0,1-13.54-3.4c-1.77-.7-17.48-6.86-25.33-7.41-3.57-.25-5.44,1.25-6.38,2.55-2.74,3.78.18,8.3,1.28,10A52.69,52.69,0,0,0,53,108.17c1.1,1.07,2.24,2.18,3.4,3.41,3.15,3.33,6.33,7.35,8.44,10l.8,1a29.24,29.24,0,0,0,4.75,5.17c2.84,2.36,5.54,3.67,9.27,5.48,2.22,1.08,4.45,2.05,6.82,3a63,63,0,0,0,7.77,2.57,8,8,0,0,1,2.82,1.11c1.85,1.14,4.39,2.72,5.77,5.42.13.25.25.5.36.76a14.55,14.55,0,0,0,3.5,5,16.52,16.52,0,0,0,5.92,3.42,16.07,16.07,0,0,0,4,.81c.2.46.44,1.26.53,1.56a49.68,49.68,0,0,1,2.08,8.66,20.86,20.86,0,0,0,2.77,7.63l-.36,0-.65.2c-1,.3-1.84.57-2.64.84-1.89-7.29-5.42-12.34-7.92-14.21h0c-3.47-2.6-8-2.6-14.14-2.6-6.73,0-14.74,3.91-18,7.62-2-2.4-3.9-3.79-6.37-3.69a57.66,57.66,0,0,0-21.63,5.16,11.46,11.46,0,0,0-5.16,4.51c-.83,1.15-2.27,4.47-1.39,7.4.69,2.26,2.17,3.6,8.48,5-.78,11.42-2,31.16-2,46.68l-3.2,2.22a5.73,5.73,0,0,0,1.09,10c14.87,6.12,21.18,7.16,24.06,7.16a8.75,8.75,0,0,0,1.73-.16,6.06,6.06,0,0,0,3.16-1.46c3.62-3.2,5.82-7.88,7.33-11.81.3,2,.68,4.28,1,6.22,1.62,8.56,2.65,12.13,6.4,12.87A5,5,0,0,0,97.51,252c1.26-3,2.25-7.62,2.95-14,.4,1.21.79,2.38,1.18,3.51.84,2.44,6.27,10.91,6.5,11.27,5.12,8,7.32,10.7,10.26,10.7a5.88,5.88,0,0,0,1.15-.13,5,5,0,0,0,3.9-5.4c-.15-2.06-.43-4.32-.81-6.7q.38.08.75.12l.12,0a68.37,68.37,0,0,0,8,.51,37,37,0,0,0,6.09-.46,6,6,0,0,0,3.2,5.22,5,5,0,0,0,2.14.49c5.12,0,9.6-7.82,9.64-7.91a68.47,68.47,0,0,0,2.82-6.65,42.85,42.85,0,0,0,4.32.36,45.91,45.91,0,0,0,3.46,7.91,9.36,9.36,0,0,0,1.6,2.34c2.43,3,4.82,3.32,7.67,4,7.88,1.87,10.11-.83,11.08-9.77,1,1.84,2.74,3.68,5.71,3.13a4.93,4.93,0,0,0,3.06-1.89c.22.79.46,1.58.72,2.38.79,2.41,2.55,7.82,6.93,7.82a5.65,5.65,0,0,0,1.12-.11c3.55-.69,4-4.13,4.23-5.79.17-1.34.39-3.47.72-6.82l0-.3a14.25,14.25,0,0,0,13,8.27,10.24,10.24,0,0,0,1.11-.05,15.08,15.08,0,0,0,9.9-5.44,20.79,20.79,0,0,0,3.81-6.31l0,.07c1.86,8.87,2.92,12.27,6.72,12.8a5,5,0,0,0,5.48-3.73c.89-3,1.61-8,2.16-15,1,2.9,1.9,5.6,2.79,8.1s5.76,8.75,6.73,10c5.12,6.58,7.54,8.77,10.18,8.77a5.25,5.25,0,0,0,1.16-.14,5,5,0,0,0,3.92-5.47c-.16-2.05-.46-4.28-.86-6.61a14.1,14.1,0,0,0,8.37,3.67l.89,0a15.67,15.67,0,0,0,7.86-2.33c4.7-2.65,6.76-6.68,8.26-9.62a38.52,38.52,0,0,0,4-13.05c1.32-19.66-4.15-24.24-2.89-28.66,4.11-14.43,5-18.86,2.42-28.12-1-3.65-2.77-9.76-8.71-13.7a16.27,16.27,0,0,0-9.71-3c-6.57.27-10.73,4.92-12.51,6.91a25,25,0,0,0-4,6.14c-2-4.73-4.66-8-6.66-9.46-3.56-2.53-8.19-2.53-14.61-2.53-4.36,0-9.53,1.6-13.71,3.72.32-1.28.7-2.54,1.22-4.27C232.45,156.63,232.69,155.83,232.89,155.37Z"/><path class="cls-4" d="M118.4,263.9c-3.1,0-5.25-2.58-10.57-10.86-.58-.91-5.7-8.92-6.54-11.35-.22-.65-.44-1.3-.66-2-.69,5.57-1.61,9.66-2.79,12.45a5.35,5.35,0,0,1-6,3.35c-4-.78-5-4.42-6.69-13.15-.29-1.53-.58-3.26-.85-4.91-1.38,3.38-3.52,7.69-6.93,10.7A6.44,6.44,0,0,1,74,249.71a8.93,8.93,0,0,1-1.78.16c-4.47,0-12.61-2.42-24.2-7.18A6.1,6.1,0,0,1,46.84,232l3-2.11c0-11.39.65-26.51,2-46.2-6.22-1.37-7.73-2.82-8.43-5.14-.93-3.07.57-6.53,1.44-7.72,1.65-2.26,2.71-3.46,5.3-4.63A58,58,0,0,1,72,161.05c2.28-.08,4.2.95,6.39,3.5,3.42-3.65,11.26-7.44,18-7.44,6.26,0,10.79,0,14.36,2.68,2.62,2,6.07,7.05,7.95,14l2.28-.72.54-.17a20.9,20.9,0,0,1-2.55-7.29,50,50,0,0,0-2.06-8.61c-.07-.23-.27-.87-.44-1.33a15.81,15.81,0,0,1-3.84-.81,17,17,0,0,1-6-3.5,14.69,14.69,0,0,1-3.57-5.15c-.13-.28-.24-.51-.36-.74-1.33-2.62-3.83-4.16-5.64-5.28a7.55,7.55,0,0,0-2.72-1.07,62.9,62.9,0,0,1-7.82-2.58c-2.38-.93-4.62-1.91-6.84-3-3.76-1.82-6.46-3.13-9.34-5.52a30.21,30.21,0,0,1-4.81-5.22l-.8-1c-2.1-2.66-5.28-6.68-8.42-10-1.16-1.23-2.29-2.34-3.38-3.4a52.62,52.62,0,0,1-8.33-9.69c-1.14-1.75-4.16-6.42-1.27-10.41,1-1.37,3-2.94,6.7-2.69,7.9.56,23.66,6.73,25.43,7.44a55.79,55.79,0,0,0,13.46,3.37c4.94.76,10,1.55,16.74,4.92a58.47,58.47,0,0,1,7.94,4.43c1.83,1.29,3.18,2.44,4.36,3.45a14.16,14.16,0,0,0,4.94,3.21,7.38,7.38,0,0,0,3.06.55,6.94,6.94,0,0,0,3.68-1.83c.21-.18,5.3-4.42,18.85-12.12,5.33-3,14-4.53,26.4-4.57s21.1,1.54,26.43,4.57c13.58,7.72,18.59,11.9,18.8,12.08A7,7,0,0,0,223.7,113a7.28,7.28,0,0,0,3.06-.55,14.22,14.22,0,0,0,4.92-3.19c1.19-1,2.54-2.17,4.38-3.47a58.57,58.57,0,0,1,7.91-4.42c6.72-3.38,11.83-4.17,16.76-4.93a55.74,55.74,0,0,0,13.47-3.37c1.77-.71,17.53-6.88,25.43-7.44,3.72-.27,5.7,1.31,6.7,2.69,2.89,4-.13,8.66-1.27,10.41a52.94,52.94,0,0,1-8.32,9.68c-1.1,1.07-2.23,2.18-3.4,3.41-3.13,3.32-6.3,7.32-8.4,10l-.81,1a30.21,30.21,0,0,1-4.81,5.22c-2.88,2.39-5.59,3.7-9.33,5.52-2.24,1.09-4.48,2.07-6.86,3a63.54,63.54,0,0,1-7.8,2.58,7.63,7.63,0,0,0-2.73,1.06c-1.82,1.13-4.31,2.67-5.64,5.29-.12.23-.23.46-.34.69a14.87,14.87,0,0,1-3.59,5.2,17,17,0,0,1-6.05,3.5,15.81,15.81,0,0,1-3.84.81c-.17.46-.37,1.1-.44,1.33-.42,1.38-.74,2.46-1,3.48a32.35,32.35,0,0,1,13.16-3.41c6.48,0,11.17,0,14.82,2.61,1.77,1.27,4.36,4.25,6.46,8.89a24.92,24.92,0,0,1,3.76-5.52c1.81-2,6-6.76,12.77-7a16.78,16.78,0,0,1,9.91,3c6.07,4,7.82,10.21,8.87,13.91,2.69,9.53,1.64,14.06-2.42,28.32-.45,1.56,0,3.19.71,5.65,1.21,4.22,3,10.61,2.2,22.94a38.78,38.78,0,0,1-4,13.18c-1.53,3-3.62,7.07-8.41,9.78a15.74,15.74,0,0,1-9,2.34,14,14,0,0,1-7.82-3.13c.33,2.06.56,4,.7,5.68a5.38,5.38,0,0,1-4.2,5.86,6.2,6.2,0,0,1-1.24.14c-2.71,0-5.16-2.08-10.47-8.91-1-1.25-5.89-7.64-6.78-10.1-.72-2-1.47-4.16-2.23-6.43a74.52,74.52,0,0,1-2,13.31,5.33,5.33,0,0,1-5.87,4c-3.87-.54-5-3.76-6.8-12a20.45,20.45,0,0,1-3.43,5.34,15.42,15.42,0,0,1-10.13,5.56,10.59,10.59,0,0,1-1.15,0A14.71,14.71,0,0,1,208.37,250a13.68,13.68,0,0,1-2.05-2.8c-.28,2.84-.47,4.71-.63,5.93-.22,1.6-.71,5.35-4.53,6.1a6.91,6.91,0,0,1-1.18.11c-4.65,0-6.49-5.65-7.27-8.07-.21-.62-.38-1.2-.55-1.75a5.15,5.15,0,0,1-2.82,1.5,5.23,5.23,0,0,1-5.54-2.41c-.61,4.76-1.65,7.28-3.5,8.59s-4.16,1.36-7.9.46l-.64-.15c-2.63-.61-4.91-1.14-7.23-4a9.53,9.53,0,0,1-1.65-2.41,45.72,45.72,0,0,1-3.39-7.72c-1.33-.05-2.62-.15-3.82-.31a68.2,68.2,0,0,1-2.73,6.41c0,.08-4.57,8.11-10,8.11h0a5.47,5.47,0,0,1-2.3-.52,6.16,6.16,0,0,1-3.36-5.13,37.88,37.88,0,0,1-5.77.4,70.76,70.76,0,0,1-8.07-.51l-.13,0-.27,0c.36,2.29.61,4.39.75,6.24a5.37,5.37,0,0,1-4.2,5.78A6,6,0,0,1,118.4,263.9Zm-18.12-27.52.52,1.57c.4,1.2.79,2.37,1.18,3.5.82,2.4,6.23,10.84,6.46,11.2,5.08,7.9,7.23,10.52,10,10.52a6.18,6.18,0,0,0,1.08-.11,4.64,4.64,0,0,0,3.61-5c-.14-2-.42-4.2-.81-6.67l-.08-.5.5.09.74.11.12,0a69.15,69.15,0,0,0,8,.51,38,38,0,0,0,6-.45l.39-.07,0,.39a5.72,5.72,0,0,0,3,4.92,4.66,4.66,0,0,0,2,.45h0c4.86,0,9.28-7.63,9.32-7.71a68,68,0,0,0,2.8-6.61l.1-.27.29,0a40.29,40.29,0,0,0,4.28.35H160l.08.24a45.8,45.8,0,0,0,3.43,7.84,9.19,9.19,0,0,0,1.55,2.28c2.19,2.66,4.35,3.16,6.86,3.75l.64.15c3.52.83,5.78.73,7.32-.36,1.78-1.26,2.74-3.89,3.31-9.1l.13-1.15.55,1c1.29,2.38,3.09,3.37,5.33,2.95a4.6,4.6,0,0,0,2.83-1.75l.45-.57.19.69c.2.74.44,1.51.72,2.37.8,2.46,2.46,7.57,6.58,7.57a5.51,5.51,0,0,0,1.05-.11c3.3-.64,3.71-3.78,3.94-5.47.17-1.34.39-3.47.72-6.81l.15-1.58.57,1.15a13.62,13.62,0,0,0,2.49,3.69,14,14,0,0,0,10.15,4.38c.47,0,.85,0,1.08,0a14.73,14.73,0,0,0,9.66-5.32,20.49,20.49,0,0,0,3.75-6.2l.43-1.11.27,1.24c1.82,8.68,2.85,12,6.42,12.51a4.63,4.63,0,0,0,5.08-3.47c.88-3,1.6-8,2.15-14.92l.14-1.79.57,1.7c1,2.89,1.89,5.61,2.79,8.09s5.7,8.67,6.66,9.91C263.2,261,265.51,263,268,263a5.42,5.42,0,0,0,1.09-.12,4.65,4.65,0,0,0,3.62-5.09c-.15-2-.43-4.17-.84-6.58l-.18-1,.77.67a13.67,13.67,0,0,0,8.15,3.59,15.16,15.16,0,0,0,8.55-2.25c4.61-2.6,6.64-6.57,8.12-9.48a38.52,38.52,0,0,0,4-12.9c.82-12.21-1-18.52-2.16-22.69-.74-2.58-1.22-4.29-.72-6,4-14.1,5.06-18.58,2.42-27.92-1-3.6-2.73-9.63-8.56-13.5a16,16,0,0,0-9.49-2.92c-6.42.26-10.51,4.84-12.26,6.79a24.57,24.57,0,0,0-4,6.06l-.34.73-.32-.74c-2.09-4.92-4.75-8-6.53-9.31-3.46-2.47-8.05-2.47-14.4-2.47a32.16,32.16,0,0,0-13.55,3.68l-.71.36.2-.77c.32-1.29.7-2.54,1.23-4.28.09-.31.34-1.12.54-1.6l.09-.2.21,0a15.41,15.41,0,0,0,3.89-.8,16.3,16.3,0,0,0,5.8-3.34,14.07,14.07,0,0,0,3.4-4.93l.37-.76c1.43-2.8,4-4.4,5.91-5.57a8.26,8.26,0,0,1,2.92-1.15,62.65,62.65,0,0,0,7.73-2.56c2.36-.92,4.58-1.9,6.79-3,3.71-1.8,6.39-3.09,9.2-5.43a29.35,29.35,0,0,0,4.7-5.11l.8-1c2.12-2.68,5.3-6.7,8.46-10,1.18-1.24,2.31-2.35,3.4-3.42a52.19,52.19,0,0,0,8.23-9.56c1.07-1.65,3.89-6,1.29-9.59-.89-1.23-2.66-2.66-6.06-2.4-7.79.55-23.46,6.69-25.21,7.39a56.12,56.12,0,0,1-13.62,3.42c-4.89.75-9.93,1.53-16.54,4.85a57.64,57.64,0,0,0-7.83,4.38,52.29,52.29,0,0,0-4.33,3.42,14.86,14.86,0,0,1-5.15,3.33,7.81,7.81,0,0,1-3.37.58,7.71,7.71,0,0,1-4.13-2c-.21-.17-5.16-4.31-18.69-12-5.21-3-13.73-4.43-26-4.47s-20.85,1.5-26.07,4.47c-13.5,7.67-18.53,11.87-18.74,12a7.63,7.63,0,0,1-4.08,2,8,8,0,0,1-3.37-.58,15,15,0,0,1-5.16-3.33A51.52,51.52,0,0,0,113,106.4a59.5,59.5,0,0,0-7.84-4.39c-6.6-3.31-11.64-4.09-16.52-4.84A56.08,56.08,0,0,1,75,93.75c-1.76-.7-17.42-6.84-25.22-7.39-3.4-.24-5.17,1.17-6,2.4-2.6,3.58.22,7.94,1.28,9.59a52.54,52.54,0,0,0,8.23,9.55c1.1,1.08,2.23,2.19,3.41,3.43,3.16,3.34,6.35,7.38,8.46,10l.8,1a29.35,29.35,0,0,0,4.7,5.11c2.81,2.34,5.49,3.63,9.19,5.43,2.21,1.07,4.44,2,6.8,3a60.85,60.85,0,0,0,7.72,2.55,8.44,8.44,0,0,1,2.93,1.16c1.89,1.17,4.48,2.77,5.91,5.57.12.24.23.48.34.72a14.38,14.38,0,0,0,3.43,5,16.3,16.3,0,0,0,5.8,3.34,15.25,15.25,0,0,0,3.89.8l.21,0,.09.2c.2.48.45,1.29.54,1.6a50,50,0,0,1,2.09,8.71,20.27,20.27,0,0,0,2.73,7.5l.29.51-.91.06-.6.19c-1,.3-1.83.57-2.63.84l-.37.12-.1-.37c-1.81-7-5.22-12.1-7.78-14-3.38-2.53-7.81-2.53-13.93-2.53-6.68,0-14.54,3.88-17.68,7.5l-.28.32-.28-.33c-2.14-2.58-4-3.64-6.08-3.56a57.31,57.31,0,0,0-21.49,5.13,11.16,11.16,0,0,0-5,4.39c-.8,1.11-2.19,4.29-1.34,7.08.65,2.14,2,3.39,8.2,4.71l.31.07,0,.31c-1.36,19.95-2,35.21-2,46.66v.19l-3.36,2.33a5.37,5.37,0,0,0,1,9.37c11.35,4.67,19.62,7.13,23.93,7.13a8.09,8.09,0,0,0,1.66-.15,5.76,5.76,0,0,0,3-1.37c3.72-3.29,5.91-8.23,7.23-11.67l.49-1.28.21,1.36c.3,2,.68,4.26,1,6.2,1.58,8.4,2.58,11.88,6.11,12.58a4.66,4.66,0,0,0,5.23-2.92c1.25-2.95,2.23-7.62,2.92-13.86Z"/><path class="cls-2" d="M207.11,136.36a1.89,1.89,0,0,0-1.43.46c-1.55,1.23-2.89,5-3.4,9.61-.56,5.06,0,10.64,2.49,10.95H205a2,2,0,0,0,1.23-.48c1.56-1.23,2.89-5,3.4-9.61C210.15,142.24,209.61,136.66,207.11,136.36Z"/><path class="cls-5" d="M205,157.75h-.24c-2.76-.34-3.4-5.94-2.8-11.35.53-4.77,1.89-8.55,3.54-9.86a2.23,2.23,0,0,1,1.69-.53h0c2.77.33,3.4,5.93,2.8,11.34-.52,4.7-1.91,8.57-3.53,9.86A2.38,2.38,0,0,1,205,157.75Zm2-21a1.62,1.62,0,0,0-1,.39c-1.46,1.16-2.77,4.93-3.27,9.37-.55,5,0,10.28,2.17,10.54a1.65,1.65,0,0,0,1.16-.38c1.46-1.16,2.77-4.92,3.26-9.37.56-5,0-10.28-2.17-10.54Z"/><path class="cls-2" d="M143.83,136.82a1.94,1.94,0,0,0-1.43-.46c-2.5.3-3,5.88-2.48,10.94.51,4.61,1.84,8.38,3.4,9.61a2,2,0,0,0,1.23.48h.19c2.51-.31,3-5.89,2.49-10.95C146.71,141.83,145.38,138.05,143.83,136.82Z"/><path class="cls-5" d="M144.55,157.75a2.35,2.35,0,0,1-1.46-.55c-1.63-1.29-3-5.16-3.53-9.86-.6-5.41,0-11,2.8-11.34a2.23,2.23,0,0,1,1.69.53h0c1.63,1.29,3,5.16,3.54,9.86.59,5.41,0,11-2.8,11.35Zm-2-21h-.15c-2.16.26-2.72,5.5-2.16,10.54.49,4.45,1.8,8.21,3.26,9.37a1.63,1.63,0,0,0,1,.39h.15c2.16-.26,2.72-5.5,2.16-10.54-.49-4.45-1.8-8.21-3.26-9.37A1.62,1.62,0,0,0,142.59,136.71Z"/><path class="cls-2" d="M174.77,206h0Z"/><polygon class="cls-5" points="174.77 206.39 174.74 206.39 174.74 205.66 174.77 206.39"/><path class="cls-2" d="M174.74,99.57h0Z"/><polygon class="cls-5" points="174.77 99.94 174.74 99.21 174.77 99.21 174.77 99.94"/><path class="cls-2" d="M302.22,91.32c-.49-.67-1.59-.66-2.23-.61-7.34.52-23.92,7.09-23.92,7.09-12.61,5-18.53,2.45-29.79,8.11a55.89,55.89,0,0,0-7.3,4c-4.6,3.23-6,5.71-10.53,7.3a12.26,12.26,0,0,1-5.27.81,12.06,12.06,0,0,1-6.49-3s-4.75-4-18-11.55c-4.42-2.52-12.31-3.87-23.9-3.91s-19.47,1.39-23.9,3.91c-13.28,7.55-18,11.55-18,11.55a12.06,12.06,0,0,1-6.49,3,12.26,12.26,0,0,1-5.27-.81c-4.52-1.59-5.93-4.07-10.54-7.3a55,55,0,0,0-7.29-4C92,100.25,86.05,102.8,73.44,97.8c0,0-16.58-6.57-23.92-7.09-.64,0-1.75-.06-2.23.61-.78,1.08.56,3.32,1.42,4.66,3.43,5.29,7,7.94,11.15,12.36,3.3,3.49,6.58,7.64,8.71,10.34s3,3.9,4.87,5.47c2.35,2,4.63,3.08,8.31,4.86,2.58,1.25,4.8,2.18,6.48,2.84,7.74,3,8.18,2.09,11.35,4.05,2.13,1.32,5.52,3.42,7.5,7.3a12.63,12.63,0,0,0,2.84,4.46,12.09,12.09,0,0,0,4.25,2.43c2.71.92,3.62.25,5.07,1.21s1.82,2.25,2.43,4.26a54.49,54.49,0,0,1,2.23,9.32c.8,5.31,4,8.9,8.71,14.19,5.65,6.33,7,4.64,13.38,11.55,4.57,5,4.73,6.85,8.92,9.73a32.27,32.27,0,0,0,10.46,4.57,40.59,40.59,0,0,0,18.77,0,32.27,32.27,0,0,0,10.46-4.57c4.19-2.88,4.35-4.74,8.92-9.73,6.33-6.91,7.73-5.22,13.37-11.55,4.72-5.29,7.91-8.88,8.72-14.19a54.49,54.49,0,0,1,2.23-9.32c.61-2,1.12-3.39,2.43-4.26s2.36-.29,5.07-1.21a12.09,12.09,0,0,0,4.25-2.43,12.63,12.63,0,0,0,2.84-4.46c2-3.88,5.37-6,7.5-7.3,3.17-2,3.61-1,11.35-4.05,1.68-.66,3.9-1.59,6.48-2.84,3.67-1.78,6-2.9,8.31-4.86,1.89-1.57,2.72-2.76,4.87-5.47s5.41-6.85,8.71-10.34c4.18-4.42,7.72-7.07,11.15-12.36C301.66,94.64,303,92.4,302.22,91.32Zm-147.6,92.26c-6,1.64-20-6-25.85-23.22-5.36-15.69-1.92-31.61,12.08-35.35,14.28-3.81,24.07,7.76,27.87,23.93S166.16,180.43,154.62,183.58ZM171.93,194c-.14.36-.33.86-.8,1l-.18,0c-.71,0-1.37-1-1.67-1.58a4.21,4.21,0,0,1-.35-1.41l-.09-.61a10.14,10.14,0,0,0-.49-2.38,1.6,1.6,0,0,0-.73-.61,5.41,5.41,0,0,1-1.26-.89,5.32,5.32,0,0,1-1.53-2.05,5.21,5.21,0,0,1,.21-3.81c.51-1.36,1.05-2,1.61-1.94s.8.61,1,1.66a3.46,3.46,0,0,1,0,1.24,2.85,2.85,0,0,0,0,.83,3.51,3.51,0,0,0,.81,1.67,3,3,0,0,0,1,.85,3.5,3.5,0,0,1,1.1.92,6.43,6.43,0,0,1,1,2.37,14,14,0,0,1,.49,2.86A3.76,3.76,0,0,1,171.93,194Zm12.75-8.53a6.55,6.55,0,0,1-2.79,2.94,1.55,1.55,0,0,0-.73.61,10.14,10.14,0,0,0-.49,2.38l-.09.61a4.39,4.39,0,0,1-.35,1.41c-.3.61-1,1.58-1.67,1.58l-.18,0c-.47-.12-.66-.62-.8-1a3.86,3.86,0,0,1-.16-1.87,14.75,14.75,0,0,1,.5-2.87,6.61,6.61,0,0,1,1-2.37,3.52,3.52,0,0,1,1.11-.92,3,3,0,0,0,1-.85,3.51,3.51,0,0,0,.81-1.67,2.85,2.85,0,0,0,0-.83,3.66,3.66,0,0,1,0-1.24c.2-1,.53-1.59,1-1.66s1.1.58,1.61,1.94A5.21,5.21,0,0,1,184.68,185.44Zm36.06-25.08c-5.87,17.19-19.85,24.86-25.85,23.22-11.55-3.15-17.91-18.47-14.11-34.64S194.37,121.2,208.66,125C222.66,128.75,226.1,144.67,220.74,160.36Z"/><path class="cls-5" d="M174.85,206.39h-.19a34.37,34.37,0,0,1-9.38-1.12,32.54,32.54,0,0,1-10.58-4.62,20,20,0,0,1-5.2-5.2,55.22,55.22,0,0,0-3.78-4.58,32.3,32.3,0,0,0-6.94-6,28.43,28.43,0,0,1-6.44-5.58c-4.8-5.39-8-9-8.8-14.37a53.69,53.69,0,0,0-2.22-9.27c-.58-1.93-1.06-3.25-2.28-4.06a3.76,3.76,0,0,0-2-.58,11,11,0,0,1-3-.6,12.25,12.25,0,0,1-4.38-2.51,10.54,10.54,0,0,1-2.49-3.66c-.14-.3-.27-.6-.42-.9-1.94-3.79-5.21-5.81-7.37-7.15a12.17,12.17,0,0,0-4-1.62,57.32,57.32,0,0,1-7.29-2.4c-2.25-.88-4.38-1.82-6.51-2.85-3.58-1.74-6-2.89-8.39-4.91a25.55,25.55,0,0,1-4.1-4.5l-.81-1c-2.16-2.73-5.41-6.84-8.7-10.31-1.22-1.29-2.38-2.43-3.51-3.54a48.52,48.52,0,0,1-7.67-8.88c-1.12-1.72-2.29-3.85-1.41-5.07.65-.89,2.08-.79,2.55-.75,7.31.51,23.34,6.84,24,7.11a60.29,60.29,0,0,0,14.49,3.66c4.78.74,9.3,1.43,15.33,4.46a55.87,55.87,0,0,1,7.34,4.08c1.66,1.17,2.92,2.24,4,3.19a18.51,18.51,0,0,0,6.42,4.06,12.1,12.1,0,0,0,5.11.8,11.58,11.58,0,0,0,6.24-2.92c.26-.21,5.1-4.21,18.15-11.63,4.53-2.58,12.64-3.91,24.07-4s19.54,1.37,24.08,4c13.17,7.49,18,11.55,18.09,11.59a11.71,11.71,0,0,0,6.29,3,12,12,0,0,0,5.12-.8,18.51,18.51,0,0,0,6.42-4.06c1.11-.95,2.37-2,4-3.19a55.87,55.87,0,0,1,7.34-4.08c6-3,10.55-3.72,15.33-4.46a60.4,60.4,0,0,0,14.49-3.66c.68-.27,16.76-6.6,24-7.11.47,0,1.9-.14,2.55.75.88,1.22-.29,3.35-1.41,5.07a48.52,48.52,0,0,1-7.67,8.88c-1.13,1.11-2.29,2.25-3.52,3.54-3.28,3.47-6.53,7.58-8.68,10.3l-.82,1a25.2,25.2,0,0,1-4.11,4.5c-2.43,2-4.8,3.17-8.38,4.91-2.13,1-4.26,2-6.51,2.85a57.85,57.85,0,0,1-7.29,2.4,12.08,12.08,0,0,0-4,1.62c-2.16,1.34-5.43,3.36-7.37,7.15-.15.3-.29.6-.43.9a10.36,10.36,0,0,1-2.48,3.66,12.21,12.21,0,0,1-4.39,2.51,11,11,0,0,1-3,.6,3.76,3.76,0,0,0-2,.58c-1.23.81-1.7,2.13-2.28,4.06a53.69,53.69,0,0,0-2.22,9.27c-.82,5.41-4,9-8.8,14.37a28.43,28.43,0,0,1-6.44,5.58,32.3,32.3,0,0,0-6.94,6,55.22,55.22,0,0,0-3.78,4.58,20,20,0,0,1-5.2,5.2,32.54,32.54,0,0,1-10.58,4.62A34.37,34.37,0,0,1,174.85,206.39Zm-.1-.73h.1a33.77,33.77,0,0,0,9.2-1.09,31.82,31.82,0,0,0,10.35-4.52,19.07,19.07,0,0,0,5-5,59.29,59.29,0,0,1,3.82-4.63,33.24,33.24,0,0,1,7.08-6.1,27.74,27.74,0,0,0,6.29-5.45c4.72-5.3,7.84-8.8,8.63-14a55,55,0,0,1,2.24-9.38c.61-2,1.15-3.5,2.58-4.45a4.46,4.46,0,0,1,2.34-.69,10.38,10.38,0,0,0,2.81-.57,11.6,11.6,0,0,0,4.13-2.35,9.94,9.94,0,0,0,2.32-3.44c.14-.31.28-.61.44-.92,2-4,5.53-6.14,7.63-7.44a12.71,12.71,0,0,1,4.19-1.7,57,57,0,0,0,7.21-2.38c2.23-.87,4.35-1.8,6.46-2.82,3.54-1.72,5.87-2.85,8.24-4.82a24.92,24.92,0,0,0,4-4.39l.81-1c2.17-2.74,5.43-6.87,8.74-10.36,1.23-1.3,2.4-2.45,3.53-3.56a48.43,48.43,0,0,0,7.57-8.75c1.41-2.18,1.9-3.61,1.43-4.25h0c-.27-.38-.92-.53-1.91-.46-7.15.5-23.13,6.8-23.8,7.07h0a60.89,60.89,0,0,1-14.63,3.7c-4.73.72-9.19,1.41-15.12,4.39a55.65,55.65,0,0,0-7.25,4c-1.63,1.14-2.87,2.21-4,3.14a19.07,19.07,0,0,1-6.65,4.2,13.11,13.11,0,0,1-5.43.83,12.35,12.35,0,0,1-6.63-3.08c-.1-.08-4.94-4.11-18-11.56-4.43-2.52-12.41-3.81-23.72-3.85s-19.29,1.33-23.72,3.85c-13,7.39-17.78,11.35-18,11.52h0a12.48,12.48,0,0,1-6.68,3.12,13.09,13.09,0,0,1-5.43-.83,19.07,19.07,0,0,1-6.65-4.2c-1.1-.93-2.34-2-4-3.14a55.65,55.65,0,0,0-7.25-4c-5.93-3-10.4-3.67-15.12-4.39a61,61,0,0,1-14.65-3.7c-.16-.07-16.6-6.56-23.8-7.07-1-.07-1.64.08-1.91.46-.47.64,0,2.07,1.43,4.25a48.8,48.8,0,0,0,7.56,8.75c1.14,1.11,2.31,2.26,3.54,3.56,3.31,3.49,6.57,7.62,8.73,10.35l.82,1a24.54,24.54,0,0,0,4,4.39c2.37,2,4.7,3.1,8.23,4.82,2.12,1,4.24,1.95,6.46,2.82a56.37,56.37,0,0,0,7.21,2.38,12.67,12.67,0,0,1,4.2,1.7c2.1,1.3,5.6,3.47,7.63,7.44.16.31.3.61.44.92a9.67,9.67,0,0,0,2.32,3.44,11.52,11.52,0,0,0,4.13,2.35,10.38,10.38,0,0,0,2.81.57,4.49,4.49,0,0,1,2.34.69c1.43.95,2,2.44,2.58,4.45a55,55,0,0,1,2.24,9.38c.79,5.2,3.91,8.7,8.62,14a28,28,0,0,0,6.3,5.45,33.49,33.49,0,0,1,7.08,6.1c1.77,1.93,2.9,3.43,3.82,4.63a19.07,19.07,0,0,0,5,5,31.82,31.82,0,0,0,10.35,4.52A34,34,0,0,0,174.75,205.66Zm3.81-10.33a1.15,1.15,0,0,1-.26,0c-.67-.16-.91-.81-1.06-1.2a4.25,4.25,0,0,1-.18-2,14.63,14.63,0,0,1,.51-2.93,6.85,6.85,0,0,1,1.08-2.5,4,4,0,0,1,1.21-1,2.69,2.69,0,0,0,.9-.76,3.05,3.05,0,0,0,.74-1.5,2.47,2.47,0,0,0,0-.72,3.83,3.83,0,0,1,0-1.35c.14-.79.44-1.84,1.3-2s1.41.61,2,2.17a5.51,5.51,0,0,1,.21,4.07h0a5.85,5.85,0,0,1-1.62,2.19,5.94,5.94,0,0,1-1.34.94,1.25,1.25,0,0,0-.59.48,12,12,0,0,0-.44,2.25l-.09.6a4.69,4.69,0,0,1-.38,1.51C180.41,193.84,179.64,195.33,178.56,195.33Zm4.38-15.28h0c-.29,0-.53.53-.69,1.37a3.29,3.29,0,0,0,0,1.13,3.1,3.1,0,0,1,0,.92,3.89,3.89,0,0,1-.88,1.84,3.57,3.57,0,0,1-1.11.94,3.13,3.13,0,0,0-1,.84,6.16,6.16,0,0,0-1,2.25,13.94,13.94,0,0,0-.47,2.79,3.39,3.39,0,0,0,.13,1.71c.14.38.28.69.55.75.44.11,1.09-.64,1.43-1.36a3.78,3.78,0,0,0,.32-1.3l.09-.61a8.57,8.57,0,0,1,.55-2.53,1.93,1.93,0,0,1,.85-.73,6.23,6.23,0,0,0,2.63-2.75h0a4.85,4.85,0,0,0-.21-3.55C183.65,180.5,183.21,180.05,182.94,180.05Zm-12,15.28c-1.08,0-1.85-1.49-2-1.79a4.69,4.69,0,0,1-.38-1.51l-.09-.6a13,13,0,0,0-.44-2.25,1.25,1.25,0,0,0-.59-.48,5.94,5.94,0,0,1-1.34-.94,5.85,5.85,0,0,1-1.62-2.19,5.51,5.51,0,0,1,.21-4.07c.59-1.55,1.24-2.27,2-2.17,1,.13,1.22,1.5,1.3,1.95a4.15,4.15,0,0,1,0,1.36,2.17,2.17,0,0,0,0,.72,3.14,3.14,0,0,0,.73,1.5,2.71,2.71,0,0,0,.91.76,4,4,0,0,1,1.21,1,6.85,6.85,0,0,1,1.08,2.5,14.61,14.61,0,0,1,.5,2.91,4.16,4.16,0,0,1-.17,2.06h0a1.69,1.69,0,0,1-1.06,1.2Zm-4.37-15.28c-.16,0-.62.16-1.2,1.71a4.8,4.8,0,0,0-.21,3.55,6.1,6.1,0,0,0,2.63,2.75,2,2,0,0,1,.85.73,8.57,8.57,0,0,1,.55,2.53l.09.61a3.78,3.78,0,0,0,.32,1.3c.35.73.94,1.49,1.43,1.36.27-.06.41-.37.55-.75h0a3.5,3.5,0,0,0,.13-1.71,14.7,14.7,0,0,0-.47-2.79,6.34,6.34,0,0,0-1-2.25,3.36,3.36,0,0,0-1-.84,3.29,3.29,0,0,1-1.12-.94,3.8,3.8,0,0,1-.88-1.84,2.79,2.79,0,0,1,0-.92,3.29,3.29,0,0,0,0-1.13c-.16-.84-.4-1.33-.69-1.37Zm-13.81,4.12c-7.13,0-19.11-8.36-24.35-23.69-3.39-9.93-3.22-19.57.46-26.47a18.55,18.55,0,0,1,11.88-9.35,18.26,18.26,0,0,1,14.59,1.8c6.35,3.81,11.23,11.76,13.73,22.4,3.79,16.14-2.65,31.87-14.36,35.07h0A7.55,7.55,0,0,1,152.77,184.17Zm-6.58-59.53a19.92,19.92,0,0,0-5.24.73,17.82,17.82,0,0,0-11.43,9c-3.59,6.72-3.74,16.16-.41,25.89a39.64,39.64,0,0,0,12.76,18.5c4.6,3.57,9.57,5.33,12.65,4.49h0c11.35-3.1,17.56-18.44,13.85-34.21-2.45-10.44-7.21-18.23-13.39-21.93A16.83,16.83,0,0,0,146.19,124.64Zm50.55,59.53a7.55,7.55,0,0,1-2-.24c-11.71-3.2-18.15-18.93-14.36-35.07,2.5-10.64,7.38-18.6,13.72-22.4a18.29,18.29,0,0,1,14.6-1.8A18.55,18.55,0,0,1,220.63,134c3.68,6.9,3.85,16.54.46,26.47l-.35-.12.35.12C215.85,175.81,203.87,184.17,196.74,184.17Zm6.57-59.53a16.82,16.82,0,0,0-8.78,2.45c-6.18,3.7-10.94,11.49-13.39,21.93-3.71,15.77,2.5,31.11,13.84,34.21,5.67,1.54,19.62-6,25.42-23,3.33-9.73,3.18-19.17-.41-25.89a17.82,17.82,0,0,0-11.43-9A19.94,19.94,0,0,0,203.31,124.64Z"/><path class="cls-2" d="M141.79,213.91c.61,0,5.78-9.28,4.17-10-2.28-1-16.6-2.47-21-1.76-.14-5.41-.31-9.71-.41-11.92,3.45-.68,13,.23,11.9-2.42-.68-1.6-8.11-10.18-8.56-10.17-2.23.07-5.34.27-5.34.27-.27.09-5.17,1.58-5.18,2-.1,4.84-.64,32.07.12,54.33.09,2.46.22,7.55,2.09,10.42.79,1.21,1.86,1.75,4.52,2.14s9,.91,13.54,0c.6-.12,3.18-6.27,3.3-8.59.2-3.93-8.08-2.63-16-2.86.28-6.83.32-14.43.24-21.5C128.18,214.09,138.1,213.91,141.79,213.91Z"/><path class="cls-5" d="M131.57,247.6a64.41,64.41,0,0,1-7.54-.48c-2.71-.39-3.92-1-4.78-2.31-1.89-2.88-2-7.79-2.14-10.42v-.17c-.75-22-.23-49.14-.12-54.36,0-.32,0-.6,5.3-2.25l.22-.05s3.14-.21,5.35-.27h0c.94,0,8.45,9.33,8.9,10.39a1.17,1.17,0,0,1-.06,1.14c-.72,1.13-3.48,1.31-7.6,1.45-1.61.06-3.14.11-4.2.27.09,2.15.25,6.17.38,11.2,4.78-.55,18.41.77,20.83,1.84.75.33.51,1.47.43,1.84-.61,2.88-4,8.85-4.75,8.85l-3.36,0c-4.39,0-10.3.08-12.91-.12.08,7.91,0,14.89-.23,20.75,1.69,0,3.38,0,5,0,4.71-.07,8.79-.13,10.31,1.44a2.36,2.36,0,0,1,.64,1.8c-.13,2.52-2.78,8.77-3.58,8.94A30.94,30.94,0,0,1,131.57,247.6ZM117.7,180c-.12,5.54-.62,32.39.13,54.17v.17c.08,2.38.25,7.34,2,10.06.75,1.14,1.79,1.62,4.27,2s8.86.9,13.37,0c.61-.54,2.94-6,3-8.26a1.58,1.58,0,0,0-.43-1.26c-1.31-1.35-5.42-1.29-9.78-1.22-1.77,0-3.6.06-5.43,0h-.37l0-.36c.25-6,.33-13.25.24-21.48v-.41l.4,0c2.31.24,8.88.19,13.23.15l3.28,0c.72-.63,4.37-7.1,4.2-9,0-.14,0-.23-.08-.25-2.15-.95-16.39-2.44-20.83-1.73l-.41.06v-.41c-.15-5.48-.32-9.82-.41-11.91l0-.31.31-.06a32.26,32.26,0,0,1,4.62-.34c2.87-.1,6.45-.22,7-1.12a.47.47,0,0,0,0-.46c-.6-1.41-7.32-9.26-8.3-9.95-2.05.06-4.82.23-5.2.26l-.09,0A29.81,29.81,0,0,0,117.7,180Zm19.77,66.37Zm4.19-32.82Z"/><path class="cls-2" d="M255.93,210.69c16.12-24.86,5.15-43.71.77-46.83-2.32-1.66-6.27-1.66-11.86-1.66-7.18,0-18,5.87-17.23,8.16a1,1,0,0,0,.45.49,32.53,32.53,0,0,0,9.84,3.6c-.41,10.21-1.38,37-1.18,56.37,0,2.49,3.84,22.77,4.84,19.37,1.94-6.58,2.78-23.9,3.13-40.52.18.4.37.79.58,1.17C248.21,221,251.9,233,255.49,243c.8,2.23,13.1,18.68,12.83,15.12-1.08-14-9-37-12.69-47Zm-2-11.19c-.59.94-5.17,1.09-8,1.09l-1-1.73c.11-10.33.06-19.27,0-23.6h.6s6.22-.48,7.21,0C258.31,178.08,258.33,192.4,253.92,199.5Z"/><path class="cls-5" d="M268.1,259c-2.32,0-12.54-14.69-13-15.86-3-8.36-6.41-19.08-10.12-31.85-.47,20.46-1.52,33.58-3.11,39-.18.59-.48.67-.7.64-1.83-.26-4.84-18.92-4.85-20.1-.2-19.17.74-45.38,1.16-56.09a32.08,32.08,0,0,1-9.64-3.58,1.21,1.21,0,0,1-.61-.69,1.71,1.71,0,0,1,.42-1.52c2-2.68,10.79-7.12,17.15-7.12,5.61,0,9.66,0,12.07,1.73,4.52,3.23,15.43,22.48-.67,47.32h0l-.21.33c3.49,9.56,11.57,32.86,12.65,46.92.05.66-.28.83-.48.87Zm-23.73-51,.66,1.48c.17.39.36.78.56,1.15l0,.07c3.74,12.92,7.18,23.74,10.21,32.17.78,2.17,10.39,14.76,12.13,15.36v-.09c-1.09-14.05-9.23-37.47-12.68-46.88l-.06-.17.1-.15c.1-.17.21-.33.31-.49h0c15.82-24.4,5.26-43.2.86-46.34-2.23-1.59-6.18-1.59-11.65-1.59-6,0-14.69,4.26-16.57,6.82a1.15,1.15,0,0,0-.31.87.53.53,0,0,0,.29.28,31.64,31.64,0,0,0,9.72,3.56l.3.07v.3c-.42,10.51-1.37,37-1.18,56.36,0,2.54,2.94,17.28,4.14,19.23,1.62-5.52,2.66-19.11,3.11-40.39ZM246,201h-.29l-1.16-2v-.1c.1-10.29.05-19.19,0-23.59v-.37h1c1-.08,6.34-.45,7.37.06,1.72.86,3,2.76,3.81,5.51,1.67,5.89.6,14.34-2.44,19.22h0C254,200,253.44,201,246,201Zm-.73-2.19.85,1.47c5.14,0,7.28-.5,7.54-.92,2.94-4.73,4-12.92,2.36-18.64-.73-2.55-1.91-4.3-3.44-5.06-.66-.33-4.65-.16-7,0h-.27C245.28,180.13,245.33,188.79,245.22,198.76Z"/><path class="cls-2" d="M107.6,163.86c-2.21-1.66-6-1.66-11.31-1.66-6.85,0-15.77,5.42-15.08,7.71a.9.9,0,0,0,.43.48,33.36,33.36,0,0,0,8,3.54c-.38,9.81-1.34,37.14-1.15,56.89,0,2.49,3.25,22.61,4.62,19.37,2.78-6.57,3.7-22.78,3.87-38.71l.3.52c2.58,8.84,5.68,19,8.77,28,.77,2.23,12.91,21.88,12.65,18.32-1-14.25-8.6-38-11.86-47.71C122.22,185.81,111.77,167,107.6,163.86Zm-2.66,35.64c-.56.95-5,1.09-7.72,1.09l-.18-.32c-.09-11-.44-20.52-.62-25l.48,0s5.93-.48,6.88,0C109.13,178.08,109.16,192.4,104.94,199.5Z"/><path class="cls-5" d="M118.56,259.16c-.44,0-1.61-.66-6.76-8.67a101.38,101.38,0,0,1-6-10.33c-2.55-7.45-5.37-16.43-8.39-26.73-.27,19.06-1.58,31.47-3.88,36.9-.24.58-.59.6-.77.56-2-.39-4.52-18.44-4.54-20.06C88,211.46,88.9,185,89.32,174.2a33.58,33.58,0,0,1-7.87-3.5,1.22,1.22,0,0,1-.59-.69,2,2,0,0,1,.52-1.77c1.92-2.58,9-6.41,14.91-6.41,5.35,0,9.22,0,11.53,1.73h0c4.3,3.23,14.66,22.38-.53,47.13,3.25,9.71,10.77,33.41,11.82,47.64,0,.62-.25.78-.43.81ZM96.68,210.11l.67,1.2.29.5,0,.08c3.16,10.85,6.11,20.28,8.77,28a100.89,100.89,0,0,0,5.77,9.88c3.68,5.74,5.5,7.95,6.16,8.49-1.08-14.24-8.63-38-11.83-47.53l-.06-.16.09-.14c15.06-24.39,5-43.17.8-46.31h0c-2.11-1.59-5.88-1.59-11.09-1.59-5.59,0-12.54,3.71-14.33,6.12a1.44,1.44,0,0,0-.4,1.12.57.57,0,0,0,.27.28,33.09,33.09,0,0,0,8,3.5l.27.08v.28c-.4,10.6-1.33,37.35-1.14,56.88a102.11,102.11,0,0,0,1.51,10.28c1.33,7.12,2.12,8.67,2.38,9a.08.08,0,0,0,0,0c2.34-5.52,3.64-18.5,3.85-38.57Zm.66-9.16H97l-.32-.59v-.09c-.09-10.87-.43-20.34-.62-25l0-.41.41,0c.3,0,.46,0,.47,0,1-.08,6-.45,7,.06,1.59.84,2.83,2.67,3.57,5.3,1.69,5.92.69,14.45-2.26,19.43h0C105.07,200,104.51,201,97.34,201Zm.06-.78,0,.06c4.92,0,6.95-.5,7.2-.91,2.82-4.75,3.8-13.21,2.2-18.86-.7-2.44-1.81-4.11-3.22-4.85-.62-.33-4.43-.16-6.68,0H96.8C97,180.42,97.31,189.63,97.4,200.17Z"/><path class="cls-2" d="M231.33,182.29c-.26-.64-1.77-4.24-2.67-3.92s-1.55,2.24-1.76,4.86c-.47,6-.55,14.23-1.34,35.57-.39,10.48-3.11,15-6.35,15.1-3.69.06-5.18-6.3-5.89-11.11-.78-5.32-.43-12.48-.73-19-.13-2.94-1.33-14.58-2.92-14.73-1.18-.1-2.34,6.51-2.78,8.11a37,37,0,0,0-1.41,8.59s-.55,2.71.35,17.68A74.33,74.33,0,0,0,208,237c1.73,6.77,3.28,8.64,4.07,9.46a9.58,9.58,0,0,0,7.67,3,10.72,10.72,0,0,0,6.83-3.88c3.06-3.43,4.07-7.89,4.91-12.62,2.74-15.5,1.61-23.17,1.33-41.77A21.68,21.68,0,0,0,231.33,182.29Z"/><path class="cls-5" d="M219,249.83a10,10,0,0,1-7.23-3.16c-1-1-2.5-3.15-4.15-9.62a74.92,74.92,0,0,1-2.15-13.57c-.9-14.85-.37-17.67-.34-17.78a36.32,36.32,0,0,1,1.41-8.61c.09-.33.21-.85.35-1.48,1-4.65,1.75-7,2.82-6.9.42,0,1.31.12,2.33,6.62.52,3.31.85,7,.92,8.45.1,2.34.13,4.79.15,7.16a93.53,93.53,0,0,0,.57,11.79c1.06,7.17,2.9,10.81,5.48,10.81h.05c3.41-.06,5.65-5.58,6-14.75.3-8.24.5-14.48.66-19.48.25-8,.39-12.41.68-16.11.11-1.38.52-4.66,2-5.18.83-.28,1.89,1.1,3.13,4.13h0a21.68,21.68,0,0,1,1.48,8.71c0,.13,0,.23,0,.3.07,4.1.17,7.72.26,10.92.33,11.32.55,18.8-1.59,30.91-.84,4.73-1.85,9.26-5,12.8a11.08,11.08,0,0,1-7.06,4A6.88,6.88,0,0,1,219,249.83Zm-9.36-60.4c-.68.18-1.71,4.81-2,6.33-.15.65-.27,1.19-.36,1.52a35.92,35.92,0,0,0-1.39,8.51c0,.08-.54,3,.34,17.64a74.36,74.36,0,0,0,2.13,13.44c1.61,6.3,3,8.33,4,9.3a9.27,9.27,0,0,0,7.38,2.9,10.48,10.48,0,0,0,6.59-3.76c3-3.4,4-7.82,4.82-12.44,2.13-12,1.91-19.49,1.59-30.77-.1-3.2-.2-6.82-.26-10.93v-.33a20.8,20.8,0,0,0-1.42-8.42h0c-1-2.54-1.94-3.71-2.22-3.71h0c-.57.2-1.29,1.71-1.51,4.55-.29,3.68-.43,8.08-.69,16.07-.16,5-.35,11.24-.66,19.48-.36,9.75-2.8,15.39-6.7,15.45h-.06c-3,0-5.06-3.73-6.19-11.42a91.53,91.53,0,0,1-.59-11.89c0-2.36,0-4.81-.15-7.14C212,199.25,210.7,189.72,209.64,189.43Z"/><path class="cls-2" d="M280,176.9a6.13,6.13,0,0,1,3.19-1.38c3.6-.3,6.48,3.62,7.57,5.09,1.47,2,2.14,3.84,3.25,7,1.6,4.5,1.56,6.22,2,6.22,1,0,3.33-9.52.54-19.41-1-3.6-2.38-8.14-6.78-11.06a11.6,11.6,0,0,0-6.9-2.19c-4.58.18-7.63,3.59-9.19,5.33-5.15,5.76-5.59,12.67-5.91,17.78-.27,4.28.36,7.62,1.61,14.29a16.48,16.48,0,0,0,2.62,7.08,14,14,0,0,0,5.25,4.66c2.86,1.41,3.79.53,6.54,2a9.78,9.78,0,0,1,5.46,10.43,17.52,17.52,0,0,1-2.57,8.21c-1.42,2.33-2.55,4.19-4.82,4.76a7.18,7.18,0,0,1-5.14-.91c-1.12-.63-3.08-2.11-5-8.34-1.84-6-1.61-9.68-2.17-9.69s-1.9,5.41-1.77,11.45c.09,4,.18,8.37,2.81,13.13,1.26,2.27,4.64,8.4,10.29,8.79a10.81,10.81,0,0,0,6.11-1.7c3.39-1.91,4.9-4.77,6.38-7.66a32.44,32.44,0,0,0,3.12-10.43,41.1,41.1,0,0,0,.27-12.24c-.78-5.82-1.4-10.55-5.18-13.82a35.31,35.31,0,0,0-6.85-4.09c-3.58-1.82-5.22-2.18-6.64-4.08-1.09-1.46-1.33-2.84-1.72-5.15a18.91,18.91,0,0,1,.4-8.54C277.35,180.42,278,178.39,280,176.9Z"/><path class="cls-5" d="M281.43,250.52a5.82,5.82,0,0,1-.59,0c-5.85-.4-9.29-6.63-10.59-9-2.67-4.83-2.77-9.33-2.85-13.29-.12-5.4.84-10.78,1.71-11.64a.62.62,0,0,1,.43-.19c.55,0,.63.63.86,2.25a47.56,47.56,0,0,0,1.65,7.7c1.81,5.86,3.63,7.45,4.84,8.14a6.63,6.63,0,0,0,4.87.87c2.13-.54,3.22-2.33,4.6-4.6a17.28,17.28,0,0,0,2.52-8,10.49,10.49,0,0,0-.92-5.9,10.36,10.36,0,0,0-4.36-4.2,8.28,8.28,0,0,0-3.18-1,10,10,0,0,1-3.34-1,14.27,14.27,0,0,1-5.38-4.78,16.88,16.88,0,0,1-2.69-7.22c-1.25-6.7-1.88-10.06-1.61-14.38.32-5.13.77-12.15,6-18,1.53-1.71,4.71-5.27,9.44-5.46A12.08,12.08,0,0,1,290,163c4.6,3.05,6,7.8,6.93,11.26,2.55,9,.93,17.88-.3,19.51a.76.76,0,0,1-.58.36h0c-.49,0-.61-.47-.89-1.61a46.64,46.64,0,0,0-1.44-4.85c-1.08-3-1.73-4.88-3.2-6.88-1.06-1.43-3.85-5.23-7.25-4.94a5.79,5.79,0,0,0-3,1.31h0c-2,1.45-2.55,3.43-3.13,5.34a18.94,18.94,0,0,0-.39,8.38c.39,2.25.62,3.61,1.66,5s2.14,1.88,4.18,2.84c.67.32,1.45.69,2.34,1.14a35.34,35.34,0,0,1,6.91,4.13c3.89,3.37,4.51,8.08,5.31,14.05a41.61,41.61,0,0,1-.27,12.35A32.88,32.88,0,0,1,293.67,241c-1.39,2.72-3,5.8-6.52,7.81A11.56,11.56,0,0,1,281.43,250.52Zm-12-33.16c-.55,1.15-1.45,5.6-1.33,10.85.08,4.07.17,8.29,2.76,13,1.24,2.25,4.54,8.23,10,8.61a10.43,10.43,0,0,0,5.9-1.65c3.37-1.9,4.83-4.76,6.23-7.51a32.07,32.07,0,0,0,3.09-10.32,40.64,40.64,0,0,0,.27-12.15c-.78-5.81-1.39-10.4-5.06-13.59a35,35,0,0,0-6.76-4c-.9-.45-1.66-.81-2.33-1.13-2.07-1-3.32-1.56-4.45-3.06s-1.39-3-1.79-5.31a19.39,19.39,0,0,1,.41-8.71c.58-1.93,1.24-4.11,3.38-5.71h0a6.51,6.51,0,0,1,3.38-1.45c3.8-.33,6.77,3.71,7.89,5.23,1.54,2.09,2.24,4.07,3.3,7.07a48.47,48.47,0,0,1,1.47,4.91c.09.37.17.73.24.94.89-1.29,2.69-9.78.13-18.82-.95-3.36-2.25-8-6.63-10.85a11.21,11.21,0,0,0-6.69-2.14c-4.43.18-7.36,3.46-8.93,5.22-5.06,5.66-5.5,12.53-5.82,17.55-.26,4.24.36,7.57,1.61,14.21a16,16,0,0,0,2.56,6.93A13.62,13.62,0,0,0,277.4,210a9.15,9.15,0,0,0,3.13.94A9.2,9.2,0,0,1,284,212a10.13,10.13,0,0,1,5.65,10.77,17.91,17.91,0,0,1-2.62,8.38c-1.41,2.32-2.63,4.31-5,4.93a7.42,7.42,0,0,1-5.41-.95c-1.32-.75-3.29-2.45-5.17-8.56a46.56,46.56,0,0,1-1.68-7.81C269.61,218.23,269.53,217.69,269.46,217.36Z"/><path class="cls-2" d="M201.82,215.72c.06-7.4-.11-6.5.05-13.9,0-2,.11-4.07-.53-4.4-1.22-.63-4.24,5.62-6,10.18-4.26,11.15-4.5,11-4.92,12.3-.5,1.51-2.28,4.69-2.77,4.63-1.39-.15-1.44-1.16-6.54-10.34-1.85-3.33-3.06-6.47-5.39-6.17-1.16.15-1.6,2.59-1.78,5.78a137.37,137.37,0,0,0,.23,16.36c.32,4.51.83,8.18,1.86,15.54.81,5.8,1.11,6.93,1.4,6.92,1.06,0,2.5-14.44,2.58-16.18.42-9-.35-13.56.11-13.61a9.31,9.31,0,0,1,.73,2.27c.46,2.45,4,11.89,6.09,18.27.46,1.42,1,2.69,1.45,2.61s.51-.82.57-1.09c1.48-6.13,2.14-7.13,3.56-13.29,2.15-9.33,2.51-8.07,2.63-8,.28.07.39-.22.29,10.48-.08,7.53.64,11.19,2.08,15.62.3.92,1.55,4.75,2.65,4.54.32-.07.51-1.85,1.16-8.44a126.36,126.36,0,0,0,.78-15.74C202.15,227.25,201.78,222,201.82,215.72Z"/><path class="cls-5" d="M200.09,254.56c-.62,0-1.56-.68-2.89-4.8-1.46-4.46-2.18-8.12-2.11-15.74.06-5.7.06-9.12-.05-10-.27.52-.89,2.2-2.15,7.66-.74,3.22-1.27,5-1.83,6.9-.5,1.71-1,3.47-1.72,6.39-.15.63-.37,1.27-.87,1.37s-1.15-.69-1.85-2.86c-.84-2.61-1.92-5.69-3-8.68-1.53-4.38-2.86-8.16-3.14-9.63,0-.12-.07-.35-.14-.6,0,.27,0,.57,0,.87.09,2.22.23,5.93,0,11,0,.91-.43,5-.92,8.76-1,7.74-1.59,7.76-2,7.76-.6,0-.8-.29-1.77-7.23-1-7.35-1.54-11-1.86-15.56a139,139,0,0,1-.24-16.41c.24-4.13.87-6,2.1-6.12,2.22-.28,3.48,2.09,4.95,4.85.26.49.53,1,.81,1.51,1.4,2.51,2.43,4.44,3.18,5.85,2,3.69,2.27,4.19,3,4.29a15,15,0,0,0,2.45-4.37,12.44,12.44,0,0,1,.5-1.25c.5-1.14,1.54-3.51,4.43-11.07,1.27-3.31,4.11-9.74,5.8-10.39a.8.8,0,0,1,.69,0c.78.4.78,2,.73,4.57v.16c-.09,4.23-.07,5.74,0,7.65,0,1.44,0,3.07,0,6.24,0,3.85.09,7.27.19,10,.07,1.71.12,3.19.12,4.27a129.55,129.55,0,0,1-.78,15.77c-.83,8.32-.89,8.65-1.46,8.76Zm-4.77-31.35c.58.13.59.55.5,10.82-.07,7.52.64,11.12,2.07,15.51,1.16,3.57,1.89,4.18,2.14,4.27a80.54,80.54,0,0,0,1-8.1,128.34,128.34,0,0,0,.78-15.7c0-1.07-.05-2.54-.11-4.25-.1-2.75-.23-6.18-.2-10,0-3.16,0-4.79,0-6.23,0-1.91,0-3.43.06-7.67v-.16c0-1.38.08-3.69-.34-3.91,0,0-.07,0-.09,0-1.15.44-3.64,5.41-5.38,10-2.9,7.58-3.94,10-4.44,11.1a11,11,0,0,0-.48,1.19c-.27.82-2.18,5-3.15,4.88-1.2-.14-1.52-.75-3.64-4.69-.75-1.41-1.78-3.33-3.17-5.84-.29-.52-.56-1-.82-1.52-1.4-2.62-2.5-4.69-4.21-4.47-.78.1-1.27,1.93-1.47,5.44a139.21,139.21,0,0,0,.23,16.32c.32,4.49.83,8.17,1.86,15.51.23,1.65.74,5.25,1.07,6.36.85-2.06,2.08-13.26,2.19-15.58.24-5.06.09-8.76,0-11-.1-2.44-.12-2.95.42-3s1,1.78,1.13,2.57c.26,1.41,1.64,5.35,3.11,9.52,1,3,2.13,6.08,3,8.7.57,1.79.91,2.23,1,2.33a2.35,2.35,0,0,0,.28-.78c.71-2.95,1.23-4.72,1.74-6.43.55-1.88,1.08-3.66,1.82-6.86,1.87-8.11,2.39-8.28,2.71-8.38A.49.49,0,0,1,195.32,223.21Z"/><path class="cls-2" d="M160.47,207.46c-.15-.38-8.17-6.17-8.42-5.62-1.15,2.61-2.18,5.2-3,7.49-1.66,4.51-3.69,18.69-4.79,23.91-.63,3-2.29,10.67-2.33,13,0,1,.39,5.94.94,6.2,1.09.51,4.89-3.91,5.53-5.22a70.85,70.85,0,0,0,3.94-10.09c3.75,1.25,8.76,1.22,10.88,1.14l.41,1.36a21.84,21.84,0,0,0,.9,2.54c.62,1.45,1.69,3.95,2.81,6.4,1,2.12,1.86,1.93,2.13,1.84.93-.29,1.38-3.65,1.45-5.17a36.72,36.72,0,0,0-.52-7.92C167.74,227.7,167.23,224.88,160.47,207.46ZM153,228.74c1.2-5.27,1.92-13.2,2.66-13.17.32,0,3.19,8.67,4.83,13.84C158.68,229.09,155,228.83,153,228.74Z"/><path class="cls-5" d="M143,252.84a.79.79,0,0,1-.32-.06c-.94-.44-1.15-6.48-1.15-6.54,0-2.23,1.5-9.14,2.2-12.47l.13-.6c.36-1.68.8-4.24,1.31-7.21,1-6.09,2.36-13.67,3.5-16.75,1-2.68,2-5.21,3-7.51a.44.44,0,0,1,.41-.26h0c1,0,8.43,5.31,8.66,5.89h0c6,15.56,7.07,19.38,9.12,27,.25.91.5,1.86.79,2.9a37.6,37.6,0,0,1,.53,8s-.25,5-1.71,5.5c-.65.2-1.62,0-2.56-2-1.16-2.51-2.26-5.09-2.81-6.41a24.64,24.64,0,0,1-.92-2.58l-.33-1.09a34.94,34.94,0,0,1-10.38-1.06,69,69,0,0,1-3.84,9.8C148.24,248.33,144.7,252.84,143,252.84Zm9.28-50.62c-1,2.22-2,4.66-2.93,7.24-1.11,3-2.42,10.56-3.46,16.63-.52,3-1,5.54-1.32,7.23l-.13.61c-.69,3.3-2.15,10.16-2.18,12.32,0,1.13.4,5.45.78,5.91.6.25,4.22-3.5,5-5.09A69.83,69.83,0,0,0,152,237l.11-.36.35.12c3.73,1.25,8.77,1.2,10.76,1.12h.28l.48,1.63a25.73,25.73,0,0,0,.9,2.51c.55,1.31,1.65,3.88,2.8,6.39.55,1.21,1.17,1.81,1.69,1.65s1.11-2.81,1.19-4.84a36.09,36.09,0,0,0-.51-7.84q-.42-1.52-.78-2.88c-2-7.59-3.07-11.4-9.08-26.88A61.69,61.69,0,0,0,152.29,202.22ZM161,229.87l-.59-.1c-1.82-.32-5.53-.58-7.44-.67h-.44l.1-.43c.49-2.16.9-4.79,1.26-7.11.82-5.19,1.06-6.35,1.74-6.35h0c.26,0,.71,0,5.17,14.1Zm-7.57-1.47c1.81.09,4.7.3,6.52.56-1.7-5.32-3.64-11.06-4.34-12.7a53.44,53.44,0,0,0-1,5.4C154.27,223.84,153.89,226.3,153.43,228.4Z"/><path class="cls-2" d="M78.92,174.07c-2.65-3.93-5.29-8-6.79-7.94a51.9,51.9,0,0,0-19.86,4.75c-1.47.66-1.91,1.1-3.28,3a5.16,5.16,0,0,0-.69,3.25c.21.69,4.72,1.76,9,2.46-.86,12.44-2.45,35.87-2.27,53l-5.24,3.64a1,1,0,0,0,.19,1.76c4.92,2,19.06,7.61,23.23,6.71a1.34,1.34,0,0,0,.8-.34c4.06-3.58,6.08-10,7.51-14,3.2-8.78,3.32-17.1,3.41-23.91a98,98,0,0,0-.74-13.92C83.19,185.18,82.43,179.3,78.92,174.07Zm-2.58,42.27c-1.17,5.7-2.5,12.13-6.57,17l-.08.09a43.79,43.79,0,0,1-7-1.93c1.85-14.4,2-39.13,1.92-51.23,3.06-.06,4.19-.27,5.64,1.18a24.78,24.78,0,0,1,4.1,5.27c2.79,5.21,2.94,10.62,3.08,15.95A61,61,0,0,1,76.34,216.34Z"/><path class="cls-5" d="M72.07,245.15c-5.08,0-17.06-4.69-22.28-6.83A1.37,1.37,0,0,1,49,237.2a1.35,1.35,0,0,1,.58-1.28l5.08-3.53c-.16-17.54,1.51-41.81,2.26-52.51-2.82-.48-8.59-1.59-8.92-2.67a5.37,5.37,0,0,1,.75-3.56c1.36-1.88,1.84-2.39,3.42-3.1a51.77,51.77,0,0,1,20-4.78h0c1.51,0,3.53,2.85,6.66,7.52l.4.59c3.56,5.3,4.32,11.19,5.28,18.65a101,101,0,0,1,.75,14c-.1,6.76-.22,15.18-3.44,24l-.4,1.13c-1.46,4.08-3.45,9.65-7.21,13a1.68,1.68,0,0,1-1,.43A5.36,5.36,0,0,1,72.07,245.15Zm.09-78.66h0a51.14,51.14,0,0,0-19.72,4.72c-1.37.62-1.75,1-3.14,2.86a4.85,4.85,0,0,0-.63,2.93c.3.41,3.63,1.37,8.66,2.22l.33.05,0,.33c-.74,10.55-2.46,35.27-2.28,53v.2L50,236.52a.64.64,0,0,0-.28.6.65.65,0,0,0,.4.53c4.36,1.79,18.89,7.58,23,6.68a1,1,0,0,0,.63-.25c3.62-3.2,5.58-8.67,7-12.67.14-.4.28-.78.41-1.14,3.18-8.73,3.3-17.08,3.39-23.79a99.56,99.56,0,0,0-.74-13.87c-1-7.36-1.7-13.18-5.16-18.33l-.4-.6C76,170.31,73.39,166.49,72.16,166.49Zm-2.53,67.33a43.78,43.78,0,0,1-7-1.95l-.27-.1,0-.29c1.82-14.16,2-38.14,1.92-51.18v-.36l1.3,0c2.37-.06,3.56-.09,5,1.32a24.2,24.2,0,0,1,4.17,5.35c2.83,5.28,3,10.78,3.12,16.11a62,62,0,0,1-1.13,13.73h0c-1.18,5.72-2.52,12.21-6.65,17.18l-.13.16Zm.08-.48.06,0,0-.05Zm-6.58-2.06a42,42,0,0,0,6.42,1.79c4-4.82,5.28-11.19,6.44-16.8l.35.07-.35-.07a61.18,61.18,0,0,0,1.12-13.56c-.14-5.24-.29-10.66-3-15.78a24.83,24.83,0,0,0-4-5.19c-1.18-1.18-2.06-1.16-4.42-1.1H65C65.08,193.69,64.91,217.18,63.13,231.28Z"/></svg>